<svg width="20" height="18" viewBox="0 0 20 18" fill="none" xmlns="http://www.w3.org/2000/svg">
<path d="M4.23744 0.762563C3.55402 0.0791456 2.44598 0.0791456 1.76256 0.762563C1.07915 1.44598 1.07915 2.55402 1.76256 3.23744L4.23744 0.762563ZM15.7626 17.2374C16.446 17.9209 17.554 17.9209 18.2374 17.2374C18.9209 16.554 18.9209 15.446 18.2374 14.7626L15.7626 17.2374ZM18.2374 3.23744C18.9209 2.55402 18.9209 1.44598 18.2374 0.762563C17.554 0.0791456 16.446 0.0791456 15.7626 0.762563L18.2374 3.23744ZM1.76256 14.7626C1.07915 15.446 1.07915 16.554 1.76256 17.2374C2.44598 17.9209 3.55402 17.9209 4.23744 17.2374L1.76256 14.7626ZM1.76256 3.23744L15.7626 17.2374L18.2374 14.7626L4.23744 0.762563L1.76256 3.23744ZM15.7626 0.762563L1.76256 14.7626L4.23744 17.2374L18.2374 3.23744L15.7626 0.762563Z" fill="white"/>
</svg>
