<svg width="20" height="20" viewBox="0 0 20 20" fill="none" xmlns="http://www.w3.org/2000/svg">
<path d="M3.73744 1.26256C3.05402 0.579146 1.94598 0.579146 1.26256 1.26256C0.579146 1.94598 0.579146 3.05402 1.26256 3.73744L3.73744 1.26256ZM16.2626 18.7374C16.946 19.4209 18.054 19.4209 18.7374 18.7374C19.4209 18.054 19.4209 16.946 18.7374 16.2626L16.2626 18.7374ZM18.7374 3.73744C19.4209 3.05402 19.4209 1.94598 18.7374 1.26256C18.054 0.579146 16.946 0.579146 16.2626 1.26256L18.7374 3.73744ZM1.26256 16.2626C0.579146 16.946 0.579146 18.054 1.26256 18.7374C1.94598 19.4209 3.05402 19.4209 3.73744 18.7374L1.26256 16.2626ZM1.26256 3.73744L16.2626 18.7374L18.7374 16.2626L3.73744 1.26256L1.26256 3.73744ZM16.2626 1.26256L1.26256 16.2626L3.73744 18.7374L18.7374 3.73744L16.2626 1.26256Z" fill="white"/>
</svg>
