<svg width="30" height="24" viewBox="0 0 30 24" fill="none" xmlns="http://www.w3.org/2000/svg">
<path d="M19.1251 6.0507C18.6565 5.58207 17.8967 5.58207 17.4281 6.0507C16.9594 6.51933 16.9594 7.27913 17.4281 7.74776L19.1251 6.0507ZM27.4281 17.7478C27.8967 18.2164 28.6565 18.2164 29.1251 17.7478C29.5937 17.2791 29.5937 16.5193 29.1251 16.0507L27.4281 17.7478ZM29.1251 7.74776C29.5938 7.27913 29.5938 6.51933 29.1251 6.0507C28.6565 5.58207 27.8967 5.58207 27.4281 6.0507L29.1251 7.74776ZM17.4281 16.0507C16.9594 16.5193 16.9594 17.2791 17.4281 17.7478C17.8967 18.2164 18.6565 18.2164 19.1251 17.7478L17.4281 16.0507ZM17.4281 7.74776L27.4281 17.7478L29.1251 16.0507L19.1251 6.0507L17.4281 7.74776ZM27.4281 6.0507L17.4281 16.0507L19.1251 17.7478L29.1251 7.74776L27.4281 6.0507Z" fill="white"/>
<path d="M1 14.8334V8.16669C1 7.89054 1.22386 7.66669 1.5 7.66669H8.5C8.77614 7.66669 9 7.89054 9 8.16669V14.8334C9 15.1095 8.77614 15.3334 8.5 15.3334H1.5C1.22386 15.3334 1 15.1095 1 14.8334Z" fill="white" stroke="white" stroke-width="0.5"/>
<path d="M12.1063 1.14202L7.10628 7.53091C7.03743 7.61887 7.00003 7.72736 7.00003 7.83906V15.1609C7.00003 15.2726 7.03744 15.3811 7.10628 15.4691L12.1063 21.858C12.3992 22.2323 13 22.0252 13 21.5498V1.45017C13 0.974849 12.3992 0.767699 12.1063 1.14202Z" fill="white" stroke="white" stroke-width="0.5"/>
</svg>
