<svg width="27" height="20" viewBox="0 0 27 20" fill="none" xmlns="http://www.w3.org/2000/svg">
<path d="M16.8485 4.94191C16.3799 4.47328 15.6201 4.47328 15.1515 4.94191C14.6828 5.41054 14.6828 6.17033 15.1515 6.63896L16.8485 4.94191ZM24.1515 15.639C24.6201 16.1076 25.3799 16.1076 25.8485 15.639C26.3172 15.1703 26.3172 14.4105 25.8485 13.9419L24.1515 15.639ZM25.8485 6.63896C26.3172 6.17033 26.3172 5.41054 25.8485 4.94191C25.3799 4.47328 24.6201 4.47328 24.1515 4.94191L25.8485 6.63896ZM15.1515 13.9419C14.6828 14.4105 14.6828 15.1703 15.1515 15.639C15.6201 16.1076 16.3799 16.1076 16.8485 15.639L15.1515 13.9419ZM15.1515 6.63896L24.1515 15.639L25.8485 13.9419L16.8485 4.94191L15.1515 6.63896ZM24.1515 4.94191L15.1515 13.9419L16.8485 15.639L25.8485 6.63896L24.1515 4.94191Z" fill="white"/>
<path d="M1 12.625V7.0625C1 6.78636 1.22386 6.5625 1.5 6.5625H6.53347C6.80961 6.5625 7.03347 6.78636 7.03347 7.0625V12.625C7.03347 12.9011 6.80961 13.125 6.53347 13.125H1.5C1.22386 13.125 1 12.9011 1 12.625Z" fill="white" stroke="white" stroke-width="0.5"/>
<path d="M9.13859 1.32208L5.61349 6.43433C5.55594 6.51779 5.52512 6.61678 5.52512 6.71816V12.9693C5.52512 13.0707 5.55594 13.1697 5.61349 13.2531L9.13859 18.3654C9.41713 18.7693 10.0502 18.5722 10.0502 18.0815V1.60592C10.0502 1.11525 9.41713 0.918136 9.13859 1.32208Z" fill="white" stroke="white" stroke-width="0.5"/>
</svg>
