<svg width="23" height="18" viewBox="0 0 23 18" fill="none" xmlns="http://www.w3.org/2000/svg">
<path d="M14.5162 4.21019C14.0476 3.74156 13.2878 3.74156 12.8192 4.21019C12.3506 4.67882 12.3506 5.43861 12.8192 5.90724L14.5162 4.21019ZM20.1515 13.2395C20.6201 13.7082 21.3799 13.7082 21.8485 13.2395C22.3172 12.7709 22.3172 12.0111 21.8485 11.5425L20.1515 13.2395ZM21.8485 5.90724C22.3172 5.43861 22.3172 4.67882 21.8485 4.21019C21.3799 3.74156 20.6201 3.74156 20.1515 4.21019L21.8485 5.90724ZM12.8192 11.5425C12.3506 12.0111 12.3506 12.7709 12.8192 13.2395C13.2878 13.7082 14.0476 13.7082 14.5162 13.2395L12.8192 11.5425ZM12.8192 5.90724L20.1515 13.2395L21.8485 11.5425L14.5162 4.21019L12.8192 5.90724ZM20.1515 4.21019L12.8192 11.5425L14.5162 13.2395L21.8485 5.90724L20.1515 4.21019Z" fill="white"/>
<path d="M1 10.7429V6.12143C1 5.84529 1.22386 5.62143 1.5 5.62143H6.36583C6.64198 5.62143 6.86583 5.84529 6.86583 6.12143V10.7429C6.86583 11.019 6.64198 11.2429 6.36583 11.2429H1.5C1.22386 11.2429 1 11.019 1 10.7429Z" fill="white" stroke="white" stroke-width="0.5"/>
<path d="M8.90502 1.14202L5.50565 5.48566C5.4368 5.57363 5.3994 5.68212 5.3994 5.79382V11.0705C5.3994 11.1822 5.4368 11.2906 5.50565 11.3786L8.90502 15.7223C9.19797 16.0966 9.79877 15.8894 9.79877 15.4141V1.45017C9.79877 0.974849 9.19797 0.767698 8.90502 1.14202Z" fill="white" stroke="white" stroke-width="0.5"/>
</svg>
