<svg width="17" height="16" viewBox="0 0 17 16" fill="none" xmlns="http://www.w3.org/2000/svg">
<path d="M10.3529 4.95242L16 11.0477" stroke="white" stroke-width="1.2" stroke-linecap="round" stroke-linejoin="round"/>
<path d="M16 4.95242L10.3529 11.0477" stroke="white" stroke-width="1.2" stroke-linecap="round" stroke-linejoin="round"/>
<path d="M0 10.1667V5.83337C0 5.55723 0.223858 5.33337 0.5 5.33337H4.77059C5.04673 5.33337 5.27059 5.55723 5.27059 5.83337V10.1667C5.27059 10.4429 5.04673 10.6667 4.77059 10.6667H0.5C0.223858 10.6667 0 10.4428 0 10.1667Z" fill="white"/>
<path d="M7.0042 1.21657L4.05126 5.2007C3.98742 5.28684 3.95296 5.39121 3.95296 5.49843V10.5016C3.95296 10.6088 3.98742 10.7132 4.05126 10.7993L7.0042 14.7834C7.29118 15.1706 7.9059 14.9676 7.9059 14.4857V1.5143C7.9059 1.03236 7.29118 0.829384 7.0042 1.21657Z" fill="white"/>
</svg>
