<svg width="18" height="14" viewBox="0 0 18 14" fill="none" xmlns="http://www.w3.org/2000/svg">
<path d="M11.4102 3.46949C11.1172 3.1767 10.6423 3.17686 10.3495 3.46984C10.0567 3.76283 10.0569 4.23771 10.3498 4.53051L11.4102 3.46949ZM16.3498 10.5265C16.6428 10.8193 17.1177 10.8192 17.4105 10.5262C17.7033 10.2332 17.7031 9.75833 17.4102 9.46553L16.3498 10.5265ZM17.4102 4.53051C17.7032 4.23771 17.7033 3.76283 17.4105 3.46984C17.1177 3.17686 16.6428 3.1767 16.3499 3.46949L17.4102 4.53051ZM10.3499 9.46553C10.0569 9.75833 10.0567 10.2332 10.3495 10.5262C10.6423 10.8192 11.1172 10.8193 11.4102 10.5265L10.3499 9.46553ZM10.3498 4.53051L16.3498 10.5265L17.4102 9.46553L11.4102 3.46949L10.3498 4.53051ZM16.3499 3.46949L10.3499 9.46553L11.4102 10.5265L17.4102 4.53051L16.3499 3.46949Z" fill="white"/>
<path d="M0 8.56669V5.03336C0 4.75721 0.223857 4.53336 0.5 4.53336H4.33556C4.6117 4.53336 4.83556 4.75721 4.83556 5.03336V8.56669C4.83556 8.84283 4.6117 9.06669 4.33556 9.06669H0.5C0.223858 9.06669 0 8.84283 0 8.56669Z" fill="white"/>
<path d="M6.36291 1.11304L3.73624 4.39638C3.66532 4.48503 3.62668 4.59519 3.62668 4.70872V8.89127C3.62668 9.00481 3.66532 9.11497 3.73624 9.20362L6.36291 12.487C6.65816 12.856 7.25334 12.6472 7.25334 12.1746V1.42539C7.25334 0.952752 6.65816 0.743975 6.36291 1.11304Z" fill="white"/>
</svg>
