<svg width="22" height="17" viewBox="0 0 22 17" fill="none" xmlns="http://www.w3.org/2000/svg">
<path d="M13.5979 4.03201C13.2072 3.64161 12.5741 3.64182 12.1837 4.03248C11.7933 4.42313 11.7935 5.05629 12.1841 5.44669L13.5979 4.03201ZM20.1841 13.4414C20.5748 13.8318 21.2079 13.8316 21.5983 13.4409C21.9887 13.0503 21.9885 12.4171 21.5979 12.0267L20.1841 13.4414ZM21.5979 5.44669C21.9885 5.05629 21.9887 4.42313 21.5983 4.03248C21.208 3.64182 20.5748 3.64161 20.1841 4.03201L21.5979 5.44669ZM12.1841 12.0267C11.7935 12.4171 11.7933 13.0503 12.1837 13.4409C12.5741 13.8316 13.2072 13.8318 13.5979 13.4414L12.1841 12.0267ZM12.1841 5.44669L20.1841 13.4414L21.5979 12.0267L13.5979 4.03201L12.1841 5.44669ZM20.1841 4.03201L12.1841 12.0267L13.5979 13.4414L21.5979 5.44669L20.1841 4.03201Z" fill="white"/>
<path d="M0 10.2425V5.87128C0 5.59513 0.223858 5.37128 0.500001 5.37128H5.22933C5.50547 5.37128 5.72933 5.59513 5.72933 5.87128V10.2425C5.72933 10.5187 5.50547 10.7425 5.22933 10.7425H0.5C0.223858 10.7425 0 10.5187 0 10.2425Z" fill="white"/>
<path d="M7.70358 1.11304L4.40658 5.23429C4.33565 5.32295 4.29701 5.4331 4.29701 5.54664V10.5671C4.29701 10.6806 4.33565 10.7908 4.40658 10.8795L7.70358 15.0007C7.99883 15.3698 8.59401 15.161 8.59401 14.6884V1.42539C8.59401 0.952752 7.99883 0.743974 7.70358 1.11304Z" fill="white"/>
</svg>
