<svg width="19" height="16" viewBox="0 0 19 16" fill="none" xmlns="http://www.w3.org/2000/svg">
<path d="M12.5502 4.49028C12.2687 4.18643 11.7941 4.16832 11.4903 4.44983C11.1864 4.73134 11.1683 5.20587 11.4498 5.50972L12.5502 4.49028ZM17.0969 11.605C17.3784 11.9088 17.8529 11.9269 18.1568 11.6454C18.4606 11.3639 18.4787 10.8894 18.1972 10.5855L17.0969 11.605ZM18.1972 5.50972C18.4787 5.20587 18.4606 4.73134 18.1568 4.44983C17.8529 4.16832 17.3784 4.18643 17.0969 4.49028L18.1972 5.50972ZM11.4498 10.5855C11.1683 10.8894 11.1864 11.3639 11.4903 11.6454C11.7941 11.9269 12.2687 11.9088 12.5502 11.605L11.4498 10.5855ZM11.4498 5.50972L17.0969 11.605L18.1972 10.5855L12.5502 4.49028L11.4498 5.50972ZM17.0969 4.49028L11.4498 10.5855L12.5502 11.605L18.1972 5.50972L17.0969 4.49028Z" fill="white"/>
<path d="M0 9.50003V5.50003C0 5.22389 0.223858 5.00003 0.500001 5.00003H4.83333C5.10948 5.00003 5.33333 5.22389 5.33333 5.50003V9.50003C5.33333 9.77617 5.10948 10 4.83333 10H0.5C0.223858 10 0 9.77617 0 9.50003Z" fill="white"/>
<path d="M7.10958 1.11304L4.10958 4.86304C4.03866 4.9517 4.00002 5.06186 4.00002 5.17539V9.82461C4.00002 9.93815 4.03866 10.0483 4.10958 10.137L7.10958 13.887C7.40484 14.256 8.00002 14.0472 8.00002 13.5746V1.42539C8.00002 0.952752 7.40484 0.743974 7.10958 1.11304Z" fill="white"/>
</svg>
