<svg width="25" height="20" viewBox="0 0 25 20" fill="none" xmlns="http://www.w3.org/2000/svg">
<path d="M15.7112 4.81075C15.1701 4.18342 14.223 4.11349 13.5956 4.65456C12.9683 5.19563 12.8984 6.1428 13.4394 6.77012L15.7112 4.81075ZM21.8641 16.5379C22.4052 17.1652 23.3523 17.2352 23.9797 16.6941C24.607 16.153 24.6769 15.2059 24.1359 14.5785L21.8641 16.5379ZM24.1359 6.77012C24.6769 6.1428 24.607 5.19563 23.9797 4.65456C23.3524 4.11349 22.4052 4.18342 21.8641 4.81075L24.1359 6.77012ZM13.4394 14.5785C12.8984 15.2059 12.9683 16.153 13.5956 16.6941C14.223 17.2352 15.1701 17.1652 15.7112 16.5379L13.4394 14.5785ZM13.4394 6.77012L21.8641 16.5379L24.1359 14.5785L15.7112 4.81075L13.4394 6.77012ZM21.8641 4.81075L13.4394 14.5785L15.7112 16.5379L24.1359 6.77012L21.8641 4.81075Z" fill="white"/>
<path d="M1 12.625V7.0625C1 6.78636 1.22386 6.5625 1.5 6.5625H6.53347C6.80961 6.5625 7.03347 6.78636 7.03347 7.0625V12.625C7.03347 12.9011 6.80961 13.125 6.53347 13.125H1.5C1.22386 13.125 1 12.9011 1 12.625Z" fill="white" stroke="white" stroke-width="2"/>
<path d="M9.13859 1.32208L5.61349 6.43433C5.55594 6.51779 5.52512 6.61678 5.52512 6.71816V12.9693C5.52512 13.0707 5.55594 13.1697 5.61349 13.2531L9.13859 18.3654C9.41713 18.7693 10.0502 18.5722 10.0502 18.0815V1.60592C10.0502 1.11525 9.41713 0.918136 9.13859 1.32208Z" fill="white" stroke="white" stroke-width="2"/>
</svg>
