<svg width="20" height="18" viewBox="0 0 20 18" fill="none" xmlns="http://www.w3.org/2000/svg">
<g clip-path="url(#clip0)">
<path d="M13.2796 6.11039C13.0258 5.85655 12.6142 5.85655 12.3604 6.11039C12.1065 6.36423 12.1065 6.77579 12.3604 7.02963L13.2796 6.11039ZM16.6604 11.3296C16.9142 11.5835 17.3258 11.5835 17.5796 11.3296C17.8335 11.0758 17.8335 10.6642 17.5796 10.4104L16.6604 11.3296ZM17.5796 7.02963C17.8335 6.77579 17.8335 6.36423 17.5796 6.11039C17.3258 5.85655 16.9142 5.85655 16.6604 6.11039L17.5796 7.02963ZM12.3604 10.4104C12.1065 10.6642 12.1065 11.0758 12.3604 11.3296C12.6142 11.5835 13.0258 11.5835 13.2796 11.3296L12.3604 10.4104ZM12.3604 7.02963L16.6604 11.3296L17.5796 10.4104L13.2796 6.11039L12.3604 7.02963ZM16.6604 6.11039L12.3604 10.4104L13.2796 11.3296L17.5796 7.02963L16.6604 6.11039Z" fill="white"/>
<path d="M0 11.3129V6.69145C0 6.41531 0.223858 6.19145 0.5 6.19145H5.36583C5.64198 6.19145 5.86583 6.41531 5.86583 6.69145V11.3129C5.86583 11.589 5.64198 11.8129 5.36583 11.8129H0.5C0.223858 11.8129 0 11.589 0 11.3129Z" fill="white" stroke="white" stroke-width="0.5"/>
<path d="M7.90502 1.71202L4.50565 6.05567C4.4368 6.14364 4.3994 6.25212 4.3994 6.36383V11.6405C4.3994 11.7522 4.4368 11.8607 4.50565 11.9486L7.90502 16.2923C8.19797 16.6666 8.79877 16.4594 8.79877 15.9841V2.02018C8.79877 1.54486 8.19797 1.33771 7.90502 1.71202Z" fill="white" stroke="white" stroke-width="0.5"/>
</g>
<defs>
<clipPath id="clip0">
<rect width="20" height="18" fill="white"/>
</clipPath>
</defs>
</svg>
