<svg width="25" height="20" viewBox="0 0 25 20" fill="none" xmlns="http://www.w3.org/2000/svg">
<path d="M14.8839 4.90655C14.3957 4.4184 13.6043 4.4184 13.1161 4.90655C12.628 5.39471 12.628 6.18616 13.1161 6.67432L14.8839 4.90655ZM22.1161 15.6743C22.6043 16.1625 23.3957 16.1625 23.8839 15.6743C24.372 15.1862 24.372 14.3947 23.8839 13.9066L22.1161 15.6743ZM23.8839 6.67432C24.372 6.18616 24.372 5.39471 23.8839 4.90655C23.3957 4.4184 22.6043 4.4184 22.1161 4.90655L23.8839 6.67432ZM13.1161 13.9066C12.628 14.3947 12.628 15.1862 13.1161 15.6743C13.6043 16.1625 14.3957 16.1625 14.8839 15.6743L13.1161 13.9066ZM13.1161 6.67432L22.1161 15.6743L23.8839 13.9066L14.8839 4.90655L13.1161 6.67432ZM22.1161 4.90655L13.1161 13.9066L14.8839 15.6743L23.8839 6.67432L22.1161 4.90655Z" fill="white"/>
<path d="M1 12.625V7.0625C1 6.78636 1.22386 6.5625 1.5 6.5625H6.53347C6.80961 6.5625 7.03347 6.78636 7.03347 7.0625V12.625C7.03347 12.9011 6.80961 13.125 6.53347 13.125H1.5C1.22386 13.125 1 12.9011 1 12.625Z" fill="white" stroke="white"/>
<path d="M9.13859 1.32208L5.61349 6.43433C5.55594 6.51779 5.52512 6.61678 5.52512 6.71816V12.9693C5.52512 13.0707 5.55594 13.1697 5.61349 13.2531L9.13859 18.3654C9.41713 18.7693 10.0502 18.5722 10.0502 18.0815V1.60592C10.0502 1.11525 9.41713 0.918136 9.13859 1.32208Z" fill="white" stroke="white"/>
</svg>
