<svg width="12" height="18" viewBox="0 0 12 18" fill="none" xmlns="http://www.w3.org/2000/svg">
<path fill-rule="evenodd" clip-rule="evenodd" d="M10.6747 3.54643C11.334 6.23402 9.28357 8.40268 7.04767 8.87209C1.11328 10.1226 -1.44794 1.83278 4.88416 0.163269C7.78717 -0.600754 10.1582 1.44986 10.6747 3.54643ZM8.27179 3.96178C7.97931 2.94008 6.83142 2.00667 5.39972 2.38327C2.32007 3.18513 3.60504 7.38097 6.60455 6.63046C7.66168 6.36647 8.64545 5.27179 8.27179 3.96178ZM2.7605 9.63031C4.74927 10.6854 7.35718 10.6637 9.32111 9.58141C9.42529 9.52449 9.52509 9.45837 9.62592 9.39156C9.93268 9.18829 10.2491 8.97858 10.7286 9.00175C11.5856 9.04614 13.3176 10.4128 10.2708 11.8393C9.16107 12.3576 8.7536 12.4354 8.22266 12.5368C7.953 12.5883 7.65149 12.6459 7.2099 12.7703C7.3764 13.0747 8.72412 14.2689 9.69495 15.1291C10.0414 15.4361 10.34 15.7006 10.5196 15.8669C11.6553 16.9175 10.6888 18.1112 9.52417 17.9916C8.78461 17.9146 6.46332 15.6287 6.0423 15.1586C5.62146 15.3543 5.05756 15.907 4.48041 16.4727C3.7594 17.1793 3.01782 17.9061 2.50867 17.9826C1.29822 18.1646 0.28894 16.8858 1.51923 15.7808L4.7901 12.7912C4.61621 12.7054 4.22949 12.6297 3.8526 12.5558C3.58868 12.5042 3.32959 12.4534 3.15167 12.4008C-1.61627 10.9816 0.0828857 8.8804 1.44855 9.00629C1.80725 9.03998 2.13953 9.24915 2.43988 9.43825C2.55121 9.50835 2.6582 9.57568 2.7605 9.63031Z" fill="white"/>
</svg>
