<svg width="20" height="17" viewBox="0 0 20 17" fill="none" xmlns="http://www.w3.org/2000/svg">
<path fill-rule="evenodd" clip-rule="evenodd" d="M11.9232 2.38863C11.9227 2.48559 11.9921 2.56865 12.087 2.58872C14.9286 3.18979 17.019 5.73394 17.019 8.72458C17.019 11.7402 14.8942 14.299 12.0213 14.874C11.9262 14.893 11.8558 14.9753 11.8553 15.0723L11.8496 16.1388C11.8489 16.2606 11.9567 16.3548 12.0767 16.3345C15.6961 15.722 18.4539 12.548 18.4539 8.72458C18.4539 4.92985 15.7374 1.77488 12.1581 1.12891C12.0383 1.10728 11.9295 1.20035 11.9289 1.32212L11.9232 2.38863Z" fill="white"/>
<path fill-rule="evenodd" clip-rule="evenodd" d="M11.8484 6.0644C11.8484 5.96654 11.9191 5.88203 12.0166 5.87367C12.0779 5.86842 12.1398 5.86575 12.2022 5.86575C13.5703 5.86575 14.6793 7.14831 14.6793 8.73042C14.6793 10.3125 13.5703 11.5951 12.2022 11.5951C12.1398 11.5951 12.0779 11.5924 12.0166 11.5872C11.9191 11.5788 11.8484 11.4943 11.8484 11.3964V6.0644Z" fill="white"/>
<path d="M0 10.2425V5.87128C0 5.59513 0.223858 5.37128 0.500001 5.37128H5.22933C5.50547 5.37128 5.72933 5.59513 5.72933 5.87128V10.2425C5.72933 10.5187 5.50547 10.7425 5.22933 10.7425H0.5C0.223858 10.7425 0 10.5187 0 10.2425Z" fill="white"/>
<path d="M7.70358 1.11304L4.40658 5.23429C4.33565 5.32295 4.29701 5.4331 4.29701 5.54664V10.5671C4.29701 10.6806 4.33565 10.7908 4.40658 10.8795L7.70358 15.0007C7.99883 15.3698 8.59401 15.161 8.59401 14.6884V1.42539C8.59401 0.952752 7.99883 0.743974 7.70358 1.11304Z" fill="white"/>
<path d="M0 10.2425V5.87128C0 5.59513 0.223858 5.37128 0.500001 5.37128H5.22933C5.50547 5.37128 5.72933 5.59513 5.72933 5.87128V10.2425C5.72933 10.5187 5.50547 10.7425 5.22933 10.7425H0.5C0.223858 10.7425 0 10.5187 0 10.2425Z" fill="white"/>
<path d="M7.70358 1.11304L4.40658 5.23429C4.33565 5.32295 4.29701 5.4331 4.29701 5.54664V10.5671C4.29701 10.6806 4.33565 10.7908 4.40658 10.8795L7.70358 15.0007C7.99883 15.3698 8.59401 15.161 8.59401 14.6884V1.42539C8.59401 0.952752 7.99883 0.743974 7.70358 1.11304Z" fill="white"/>
</svg>
