<svg width="22" height="19" viewBox="0 0 22 19" fill="none" xmlns="http://www.w3.org/2000/svg">
<path fill-rule="evenodd" clip-rule="evenodd" d="M13.1154 2.64425C13.1149 2.74121 13.1843 2.82431 13.2793 2.84414C16.4134 3.49899 18.7208 6.30159 18.7208 9.59703C18.7208 12.92 16.3755 15.7386 13.2069 16.3646C13.1118 16.3834 13.0414 16.4658 13.0409 16.5628L13.0344 17.7758C13.0338 17.8975 13.1416 17.9917 13.2617 17.9717C17.2542 17.3075 20.2993 13.8108 20.2993 9.59703C20.2993 5.41482 17.2996 1.93903 13.3512 1.23773C13.2313 1.21643 13.1226 1.30948 13.1219 1.43125L13.1154 2.64425Z" fill="white"/>
<path fill-rule="evenodd" clip-rule="evenodd" d="M13.0332 6.65388C13.0332 6.55602 13.104 6.4716 13.2014 6.46255C13.2743 6.45578 13.348 6.45233 13.4224 6.45233C14.9273 6.45233 16.1472 7.86314 16.1472 9.60346C16.1472 11.3438 14.9273 12.7546 13.4224 12.7546C13.348 12.7546 13.2743 12.7511 13.2014 12.7444C13.104 12.7353 13.0332 12.6509 13.0332 12.5531V6.65388Z" fill="white"/>
<path d="M0 11.3168V6.40842C0 6.13227 0.223858 5.90842 0.5 5.90842H5.80227C6.07841 5.90842 6.30227 6.13227 6.30227 6.40842V11.3168C6.30227 11.5929 6.07841 11.8168 5.80226 11.8168H0.5C0.223858 11.8168 0 11.5929 0 11.3168Z" fill="white"/>
<path d="M8.56298 1.11304L4.83628 5.77142C4.76536 5.86007 4.72672 5.97023 4.72672 6.08376V11.6414C4.72672 11.7549 4.76536 11.865 4.83628 11.9537L8.56298 16.6121C8.85823 16.9811 9.45341 16.7724 9.45341 16.2997V1.42539C9.45341 0.952752 8.85823 0.743974 8.56298 1.11304Z" fill="white"/>
<path d="M0 11.3168V6.40842C0 6.13227 0.223858 5.90842 0.5 5.90842H5.80227C6.07841 5.90842 6.30227 6.13227 6.30227 6.40842V11.3168C6.30227 11.5929 6.07841 11.8168 5.80226 11.8168H0.5C0.223858 11.8168 0 11.5929 0 11.3168Z" fill="white"/>
<path d="M8.56298 1.11304L4.83628 5.77142C4.76536 5.86007 4.72672 5.97023 4.72672 6.08376V11.6414C4.72672 11.7549 4.76536 11.865 4.83628 11.9537L8.56298 16.6121C8.85823 16.9811 9.45341 16.7724 9.45341 16.2997V1.42539C9.45341 0.952752 8.85823 0.743974 8.56298 1.11304Z" fill="white"/>
</svg>
