<svg width="24" height="20" viewBox="0 0 24 20" fill="none" xmlns="http://www.w3.org/2000/svg">
<path fill-rule="evenodd" clip-rule="evenodd" d="M14.3076 2.89987C14.3071 2.99683 14.3766 3.07996 14.4715 3.09959C17.8982 3.80819 20.4227 6.86923 20.4227 10.4695C20.4227 14.0998 17.8568 17.1782 14.3926 17.8553C14.2974 17.8739 14.227 17.9563 14.2265 18.0532L14.2193 19.4127C14.2186 19.5345 14.3264 19.6287 14.4466 19.609C18.8122 18.8929 22.1447 15.0736 22.1447 10.4695C22.1447 5.89978 18.8618 2.10319 14.5443 1.3466C14.4244 1.32559 14.3156 1.41861 14.3149 1.54039L14.3076 2.89987Z" fill="white"/>
<path fill-rule="evenodd" clip-rule="evenodd" d="M14.218 7.24336C14.218 7.1455 14.2888 7.06116 14.3862 7.05153C14.4707 7.04317 14.5563 7.03891 14.6427 7.03891C16.2843 7.03891 17.6152 8.57798 17.6152 10.4765C17.6152 12.375 16.2843 13.9141 14.6427 13.9141C14.5563 13.9141 14.4707 13.9098 14.3862 13.9015C14.2888 13.8919 14.218 13.8075 14.218 13.7097V7.24336Z" fill="white"/>
<path d="M0 12.3911V6.94556C0 6.66941 0.223858 6.44556 0.5 6.44556H6.3752C6.65134 6.44556 6.8752 6.66941 6.8752 6.94556V12.3911C6.8752 12.6672 6.65134 12.8911 6.3752 12.8911H0.5C0.223858 12.8911 0 12.6672 0 12.3911Z" fill="white"/>
<path d="M9.42238 1.11304L5.26598 6.30854C5.19506 6.3972 5.15642 6.50735 5.15642 6.62089V12.7156C5.15642 12.8291 5.19506 12.9393 5.26598 13.028L9.42238 18.2234C9.71764 18.5925 10.3128 18.3837 10.3128 17.9111V1.42539C10.3128 0.952752 9.71764 0.743975 9.42238 1.11304Z" fill="white"/>
<path d="M0 12.3911V6.94556C0 6.66941 0.223858 6.44556 0.5 6.44556H6.3752C6.65134 6.44556 6.8752 6.66941 6.8752 6.94556V12.3911C6.8752 12.6672 6.65134 12.8911 6.3752 12.8911H0.5C0.223858 12.8911 0 12.6672 0 12.3911Z" fill="white"/>
<path d="M9.42238 1.11304L5.26598 6.30854C5.19506 6.3972 5.15642 6.50735 5.15642 6.62089V12.7156C5.15642 12.8291 5.19506 12.9393 5.26598 13.028L9.42238 18.2234C9.71764 18.5925 10.3128 18.3837 10.3128 17.9111V1.42539C10.3128 0.952752 9.71764 0.743975 9.42238 1.11304Z" fill="white"/>
</svg>
