<svg width="21" height="17" viewBox="0 0 21 17" fill="none" xmlns="http://www.w3.org/2000/svg">
<path fill-rule="evenodd" clip-rule="evenodd" d="M12.9685 1.97116C12.9681 2.06603 13.0346 2.14777 13.1268 2.17043C15.7031 2.80407 17.5972 5.46574 17.5972 8.59386C17.5972 11.7479 15.6722 14.4247 13.0677 15.0314C12.9751 15.053 12.9074 15.1343 12.907 15.2294L12.9017 16.3646C12.9012 16.4879 13.0116 16.5826 13.1326 16.5584C16.4081 15.9053 18.9006 12.588 18.9006 8.59386C18.9006 4.63006 16.4458 1.3328 13.207 0.644607C13.0861 0.618912 12.9744 0.712587 12.9738 0.836213L12.9685 1.97116Z" fill="white"/>
<path fill-rule="evenodd" clip-rule="evenodd" d="M12.9006 5.79582C12.9006 5.69981 12.9688 5.61605 13.0644 5.60723C13.1165 5.60242 13.1691 5.59998 13.2221 5.59998C14.4647 5.59998 15.4721 6.94312 15.4721 8.59998C15.4721 10.2568 14.4647 11.6 13.2221 11.6C13.1691 11.6 13.1165 11.5975 13.0644 11.5927C12.9688 11.5839 12.9006 11.5001 12.9006 11.4041V5.79582Z" fill="white"/>
<path d="M1 10.7429V6.12143C1 5.84529 1.22386 5.62143 1.5 5.62143H6.36583C6.64198 5.62143 6.86583 5.84529 6.86583 6.12143V10.7429C6.86583 11.019 6.64198 11.2429 6.36583 11.2429H1.5C1.22386 11.2429 1 11.019 1 10.7429Z" fill="white" stroke="white" stroke-width="0.5"/>
<path d="M8.90502 1.14202L5.50565 5.48566C5.4368 5.57363 5.3994 5.68212 5.3994 5.79382V11.0705C5.3994 11.1822 5.4368 11.2906 5.50565 11.3786L8.90502 15.7223C9.19797 16.0966 9.79877 15.8894 9.79877 15.4141V1.45017C9.79877 0.974849 9.19797 0.767698 8.90502 1.14202Z" fill="white" stroke="white" stroke-width="0.5"/>
</svg>
