<svg width="14" height="14" viewBox="0 0 14 14" fill="none" xmlns="http://www.w3.org/2000/svg">
<path fill-rule="evenodd" clip-rule="evenodd" d="M7.54078 1.17243C7.54021 1.2704 7.61107 1.35408 7.7072 1.37299C10.5154 1.9254 12.5807 4.25567 12.5807 6.99462C12.5807 9.75661 10.4813 12.1003 7.64191 12.6288C7.54569 12.6467 7.47401 12.7295 7.47345 12.8273L7.46799 13.7715C7.4673 13.8925 7.57373 13.9865 7.69326 13.9677C11.2727 13.4062 14 10.4979 14 6.99462C14 3.51751 11.3134 0.626569 7.77346 0.0344906C7.65424 0.0145502 7.54693 0.107323 7.54623 0.228197L7.54078 1.17243Z" fill="white"/>
<path fill-rule="evenodd" clip-rule="evenodd" d="M7.46667 4.57327C7.46667 4.47451 7.53873 4.38958 7.63719 4.38194C7.69646 4.37734 7.75631 4.375 7.81667 4.375C9.16977 4.375 10.2667 5.55025 10.2667 7C10.2667 8.44975 9.16977 9.625 7.81667 9.625C7.75631 9.625 7.69646 9.62266 7.63719 9.61806C7.53873 9.61043 7.46667 9.52549 7.46667 9.42673V4.57327Z" fill="white"/>
<path d="M0 8.25V5.75C0 5.47386 0.223858 5.25 0.500001 5.25H3.23333C3.50948 5.25 3.73333 5.47386 3.73333 5.75V8.25C3.73333 8.52614 3.50948 8.75 3.23333 8.75H0.5C0.223858 8.75 0 8.52614 0 8.25Z" fill="white"/>
<path d="M4.70957 2.86304L2.90957 5.11304C2.83864 5.2017 2.8 5.31185 2.8 5.42539V8.57461C2.8 8.68815 2.83864 8.7983 2.90957 8.88696L4.70957 11.137C5.00482 11.506 5.6 11.2972 5.6 10.8246V3.17539C5.6 2.70275 5.00482 2.49397 4.70957 2.86304Z" fill="white"/>
</svg>
