<svg width="20" height="18" viewBox="0 0 20 18" fill="none" xmlns="http://www.w3.org/2000/svg">
<g clip-path="url(#clip0)">
<path fill-rule="evenodd" clip-rule="evenodd" d="M11.9707 2.07787C11.969 2.44251 12.2264 2.75229 12.5708 2.87186C14.9178 3.6865 16.5972 6.2184 16.5972 9.16387C16.5972 12.1345 14.8896 14.6817 12.5151 15.4749C12.1682 15.5907 11.9065 15.8988 11.9048 16.2646V16.2646C11.9026 16.739 12.3288 17.1048 12.7811 16.9615C15.7315 16.0269 17.9006 12.8899 17.9006 9.16387C17.9006 5.46902 15.7676 2.35334 12.855 1.39013C12.4038 1.24095 11.9729 1.60271 11.9707 2.07787V2.07787Z" fill="white"/>
<path fill-rule="evenodd" clip-rule="evenodd" d="M11.9006 6.5237C11.9006 6.33609 12.0344 6.16998 12.2221 6.16998V6.16998C13.4647 6.16998 14.4721 7.51313 14.4721 9.16998C14.4721 10.8268 13.4647 12.17 12.2221 12.17V12.17C12.0344 12.17 11.9006 12.0039 11.9006 11.8163V6.5237Z" fill="white"/>
<path d="M0 11.3129V6.69145C0 6.41531 0.223858 6.19145 0.5 6.19145H5.36583C5.64198 6.19145 5.86583 6.41531 5.86583 6.69145V11.3129C5.86583 11.589 5.64198 11.8129 5.36583 11.8129H0.5C0.223858 11.8129 0 11.589 0 11.3129Z" fill="white" stroke="white" stroke-width="0.5"/>
<path d="M7.90502 1.71202L4.50565 6.05567C4.4368 6.14364 4.3994 6.25212 4.3994 6.36383V11.6405C4.3994 11.7522 4.4368 11.8607 4.50565 11.9486L7.90502 16.2923C8.19797 16.6666 8.79877 16.4594 8.79877 15.9841V2.02018C8.79877 1.54486 8.19797 1.33771 7.90502 1.71202Z" fill="white" stroke="white" stroke-width="0.5"/>
</g>
<defs>
<clipPath id="clip0">
<rect width="20" height="18" fill="white"/>
</clipPath>
</defs>
</svg>
