<svg width="16" height="14" viewBox="0 0 16 14" fill="none" xmlns="http://www.w3.org/2000/svg">
<path fill-rule="evenodd" clip-rule="evenodd" d="M10.0633 1.98985C10.0628 2.08681 10.1322 2.16979 10.2269 2.19034C12.6122 2.70744 14.364 4.84841 14.364 7.36353C14.364 9.89978 12.5833 12.0531 10.1715 12.5484C10.0765 12.5679 10.0062 12.6502 10.0057 12.7472L10.0012 13.5852C10.0006 13.7069 10.1082 13.8012 10.2282 13.7802C13.2655 13.2486 15.5751 10.578 15.5751 7.36353C15.5751 4.17329 13.3002 1.51879 10.2968 0.959272C10.1771 0.93697 10.0684 1.03009 10.0678 1.15187L10.0633 1.98985Z" fill="white"/>
<path fill-rule="evenodd" clip-rule="evenodd" d="M10 5.1448C10 5.04694 10.0708 4.96224 10.1684 4.9553C10.2115 4.95224 10.2549 4.95068 10.2987 4.95068C11.4533 4.95068 12.3893 6.03316 12.3893 7.36846C12.3893 8.70376 11.4533 9.78624 10.2987 9.78624C10.2549 9.78624 10.2115 9.78468 10.1684 9.78162C10.0708 9.77468 10 9.68998 10 9.59212V5.1448Z" fill="white"/>
<path d="M0 8.56669V5.03336C0 4.75721 0.223857 4.53336 0.5 4.53336H4.33556C4.6117 4.53336 4.83556 4.75721 4.83556 5.03336V8.56669C4.83556 8.84283 4.6117 9.06669 4.33556 9.06669H0.5C0.223858 9.06669 0 8.84283 0 8.56669Z" fill="white"/>
<path d="M6.36291 1.11304L3.73624 4.39638C3.66532 4.48503 3.62668 4.59519 3.62668 4.70872V8.89127C3.62668 9.00481 3.66532 9.11497 3.73624 9.20362L6.36291 12.487C6.65816 12.856 7.25334 12.6472 7.25334 12.1746V1.42539C7.25334 0.952752 6.65816 0.743975 6.36291 1.11304Z" fill="white"/>
</svg>
