<?xml version="1.0" encoding="UTF-8" standalone="no"?>
<svg width="140px" height="101px" viewBox="0 0 140 101" version="1.1" xmlns="http://www.w3.org/2000/svg" xmlns:xlink="http://www.w3.org/1999/xlink">
    <!-- Generator: Sketch 40.3 (33839) - http://www.bohemiancoding.com/sketch -->
    <title>5</title>
    <desc>Created with Sketch.</desc>
    <defs></defs>
    <g id="Page-1" stroke="none" stroke-width="1" fill="none" fill-rule="evenodd">
        <g id="Group-28">
            <rect id="Rectangle-Copy-15" x="0" y="0" width="140" height="100"></rect>
            <g id="Gucci" transform="translate(10.000000, 41.000000)" fill="#4C4C4C">
                <g id="Page-1">
                    <g id="Gucci">
                        <path d="M115.945946,0.810810811 L120,0.810810811 C119.550986,1.17453445 119.281578,1.62092256 119.281578,2.23188809 L119.281578,16.8334384 C119.281578,17.4444039 119.561763,17.8795196 120,18.2432432 L115.945946,18.2432432 C116.384183,17.8795196 116.653591,17.4331315 116.653591,16.8334384 L116.653591,2.23188809 C116.653591,1.62092256 116.39496,1.17453445 115.945946,0.810810811" id="Fill-2"></path>
                        <path d="M17.8178905,6.86078911 C17.1278374,5.38162472 16.3674318,3.92556066 15.0921058,2.86518237 C13.7352009,1.72358045 12.0153071,1.03653282 10.2370356,1.03653282 C5.5106955,1.03653282 3.39338496,5.28847836 3.39338496,9.46963265 C3.39338496,13.5121851 5.41714168,17.6009383 9.97957545,17.6009383 C11.8401742,17.6009383 13.6536219,16.7968988 14.8002178,15.3408347 L14.8002178,12.0792214 C14.8002178,11.1939583 14.5075814,10.6231573 13.8167798,10.0993021 L18.6486486,10.0993021 C18.1344767,10.6812807 17.8178905,11.2751819 17.8178905,12.0792214 L17.8178905,15.3408347 C15.6070261,17.3908001 12.8580401,18.6486486 9.80444262,18.6486486 C4.41125076,18.6486486 0,14.6999877 0,9.20211628 C0,3.73926792 4.35212473,0 9.67571254,0 C12.9867701,0 15.6654037,1.21164799 17.8178905,3.64612155 L17.8178905,6.86078911" id="Fill-3"></path>
                        <path d="M29.5945946,0.810810811 L34.1190146,0.810810811 C33.5022173,1.26983402 33.2931461,1.78840211 33.2931461,2.55419452 L33.2931461,13.2406166 C33.2931461,16.1741442 36.6888792,17.6115125 39.177645,17.6115125 C41.6202811,17.6115125 44.8069431,16.1628382 44.8069431,13.3001615 L44.8069431,2.55419452 C44.8069431,1.83513354 44.6328409,1.34068489 44.1559208,0.810810811 L46.6216216,0.810810811 C46.1216364,1.3293789 45.9356299,1.84719326 45.9356299,2.55419452 L45.9356299,13.3001615 C45.9356299,17.164549 41.4342746,18.6486486 38.3175513,18.6486486 C35.1070806,18.6486486 30.4204631,17.2112804 30.4204631,13.2406166 L30.4204631,2.55419452 C30.4204631,1.82382754 30.129549,1.28189374 29.5945946,0.810810811" id="Fill-4"></path>
                        <path d="M75.4054054,6.92858445 C74.7922322,5.39770289 74.0734695,4.05444405 72.8116747,2.94440544 C71.4563582,1.75214175 69.8053909,1.00464101 67.9779381,1.00464101 C63.2618586,1.00464101 60.8453676,5.09421758 60.8453676,9.33553682 C60.8453676,13.6007761 63.3561349,17.6320476 68.0133859,17.6320476 C71.4797388,17.6320476 73.9550582,15.2131352 75.4054054,12.3038623 L75.4054054,15.4583155 C73.2483628,17.5737426 70.4653253,18.6486486 67.4235932,18.6486486 C61.788885,18.6486486 57.5675676,15.03822 57.5675676,9.27723178 C57.5675676,3.68069368 61.6237127,0 67.1528315,0 C70.2179441,0 73.18878,1.05098605 75.4054054,3.14249314 L75.4054054,6.92858445" id="Fill-5"></path>
                        <path d="M105,6.92858445 C104.387555,5.39770289 103.668008,4.05444405 102.406914,2.94440544 C101.050786,1.75214175 99.3997488,1.00464101 97.5722189,1.00464101 C92.8559396,1.00464101 90.4514141,5.09421758 90.4514141,9.33553682 C90.4514141,13.6007761 92.9509743,17.6320476 97.607668,17.6320476 C101.074167,17.6320476 103.561659,15.2131352 105,12.3038623 L105,15.4583155 C102.842866,17.5737426 100.071779,18.6486486 97.0186046,18.6486486 C91.3829039,18.6486486 87.1621622,15.03822 87.1621622,9.27723178 C87.1621622,3.68069368 91.2177247,0 96.7470774,0 C99.8130734,0 102.784035,1.05098605 105,3.14249314 L105,6.92858445" id="Fill-6"></path>
                    </g>
                </g>
            </g>
        </g>
    </g>
</svg>