<?xml version="1.0" encoding="UTF-8" standalone="no"?>
<svg width="140px" height="101px" viewBox="0 0 140 101" version="1.1" xmlns="http://www.w3.org/2000/svg" xmlns:xlink="http://www.w3.org/1999/xlink">
    <!-- Generator: Sketch 40.3 (33839) - http://www.bohemiancoding.com/sketch -->
    <title>2</title>
    <desc>Created with Sketch.</desc>
    <defs></defs>
    <g id="Page-1" stroke="none" stroke-width="1" fill="none" fill-rule="evenodd">
        <g id="Group-38">
            <rect id="Rectangle-Copy-16" x="0" y="0" width="140" height="100"></rect>
            <g id="hm" transform="translate(25.000000, 20.000000)" fill="#4C4C4C">
                <g id="Page-1">
                    <g id="hm">
                        <path d="M35.9603226,22.3177419 C37.7696774,22.3306452 40.9029032,21.3345161 41.51,22.846129 C42.2506452,24.6912903 39.8558065,25.6754839 39.0429032,26.5464516 C37.1480645,28.5777419 36.1096774,31.3716129 32.4358065,31.6564516 C29.2880645,39.8051613 26.2909677,48.1264516 23.3619355,56.8522581 C22.9548387,58.0632258 22.6716129,59.7864516 21.5116129,59.8474194 C20.4835484,59.9016129 20,58.6883871 19.3974194,58.086129 C18.3335484,57.0219355 16.5719355,56.1987097 16.313871,54.9145161 C16.1448387,54.0732258 16.586129,52.8348387 16.8422581,51.9187097 C18.5448387,45.8329032 20.91,39.5280645 22.9209677,33.8587097 C19.4506452,34.4406452 15.6364516,35.4422581 11.9964516,36.1493548 C9.84451613,41.6667742 7.73516129,47.4470968 5.65387097,53.3283871 C5.09258065,54.9145161 4.21677419,58.0016129 2.04193548,57.2929032 C0.125483871,56.6687097 1.83580645,53.0303226 2.13032258,52.1832258 C3.96096774,46.8996774 5.69193548,41.8141935 7.68,36.8541935 C7.04903226,36.5774194 6.2983871,36.4870968 5.74193548,36.1493548 C4.73225806,35.5364516 4.04774194,33.933871 2.83451613,33.153871 C1.83322581,32.51 -0.0906451613,32.2 0.279677419,30.5109677 C0.438709677,29.786129 1.90258065,29.4177419 2.6583871,29.1893548 C5.57935484,28.3070968 8.45677419,27.6119355 11.38,26.8987097 C14.1858065,19.9209677 17.1574194,12.2980645 20.1019355,5.1383871 C20.5267742,4.10580645 20.863871,2.89903226 21.4235484,2.14322581 C21.9051613,1.49258065 23.4725806,0.233548387 24.5948387,0.997741935 C25.4354839,1.57 24.8387097,3.5316129 24.5070968,4.34548387 C21.5935484,11.4977419 18.7090323,18.5877419 15.9612903,25.7535484 C19.5341935,25.0390323 23.0870968,24.3045161 26.7093548,23.6390323 C28.6845161,18.5893548 31.3145161,12.4467742 33.5812903,7.07677419 C34.2390323,5.51806452 34.9448387,2.61483871 36.223871,1.96709677 C36.9096774,1.61967742 38.3387097,1.35451613 39.3077419,0.997741935 C40.2396774,0.654516129 41.3464516,0.108387097 42.3029032,0.0287096774 C45.5858065,-0.243870968 42.7270968,4.93548387 42.3029032,6.01935484 C40.1287097,11.57 38.1293548,16.9341935 35.9603226,22.3177419" id="Fill-3"></path>
                        <path d="M35.3429032,46.7209677 C35.4112903,46.7409677 35.5167742,46.7235484 35.5190323,46.8093548 C36.2580645,46.6967742 36.7325806,46.3193548 37.1048387,45.84 C36.86,45.2629032 36.8290323,44.4712903 36.4,44.0783871 C35.9974194,44.836129 34.8906452,45.6777419 35.3429032,46.7209677 L35.3429032,46.7209677 L35.3429032,46.7209677 Z M37.2809677,38.5280645 C37.7935484,38.4116129 38.4725806,37.7306452 38.4264516,36.766129 C37.4690323,35.7283871 36.7480645,37.4945161 37.2809677,38.5280645 L37.2809677,38.5280645 L37.2809677,38.5280645 Z M38.3387097,41.7874194 C38.4725806,42.5929032 38.8509677,43.1545161 38.9548387,43.99 C39.533871,43.6348387 41.6748387,42.0519355 42.0383871,43.8135484 C42.36,45.3732258 40.8422581,46.4703226 40.1883871,47.513871 C40.4667742,48.4490323 41.2993548,49.7025806 40.6287097,50.7735484 C39.5067742,51.3445161 38.6151613,50.4580645 38.4264516,49.54 C37.5345161,50.0825806 36.8754839,50.7851613 35.7835484,50.9496774 C33.0051613,51.3683871 31.5093548,49.5874194 31.4667742,47.2496774 C31.4064516,43.9422581 34.0793548,42.4264516 35.4309677,40.553871 C34.9816129,39.0990323 34.5825806,38.1522581 34.726129,36.9422581 C35.1870968,33.0590323 41.6525806,32.9474194 41.0690323,37.3825806 C40.8141935,39.3222581 39.1674194,40.2219355 38.3387097,41.7874194 L38.3387097,41.7874194 L38.3387097,41.7874194 Z" id="Fill-4"></path>
                        <path d="M79.4803226,15.5341935 C74.2464516,26.173871 69.2945161,37.9909677 64.6796774,49.8925806 C64.1206452,51.333871 63.6,54.3745161 62.2129032,54.4735484 C61.0954839,54.553871 60.6596774,53.1441935 60.0103226,52.3596774 C58.9916129,51.1264516 57.7148387,50.2880645 57.1912903,48.8354839 C56.4183871,46.6912903 56.6232258,43.7441935 56.7509677,40.9948387 C57.1125806,33.2248387 58.15,25.0151613 58.6009677,17.6487097 C54.623871,29.4916129 50.9187097,41.4309677 47.3241935,53.7690323 C46.8735484,55.3167742 46.2254839,57.8554839 44.1529032,57.2929032 C42.086129,56.7319355 44.1293548,51.6241935 44.4167742,50.5974194 C48.6377419,35.5387097 52.9103226,21.1790323 58.1603226,6.98870968 C58.5758065,5.86612903 58.9774194,4.5316129 59.4822581,3.90516129 C60.33,2.85225806 62.0870968,2.58967742 63.7109677,1.87903226 C64.7022581,1.44483871 67.4622581,0.0151612903 68.556129,0.997741935 C69.233871,1.60709677 68.8716129,4.29354839 68.7322581,5.93129032 C67.726129,17.7935484 65.2567742,27.5164516 65.0322581,40.29 C69.3080645,28.7658065 74.8464516,17.4825806 80.0970968,6.28387097 C80.8532258,4.6716129 81.6935484,2.80225806 82.916129,2.14322581 C83.3548387,1.90645161 84.1532258,1.82387097 84.766129,1.61451613 C86.2025806,1.12451613 87.7974194,0.162258065 89.1712903,0.116774194 C91.5887097,0.0370967742 90.8048387,2.75451613 90.4048387,4.43387097 C86.3641935,21.3816129 83.0925806,38.913871 79.6567742,56.5880645 C79.4016129,57.9006452 79.3235484,59.6458065 78.4232258,59.8474194 C76.8825806,60.1929032 76.146129,58.36 75.2512903,57.5574194 C74.2925806,56.6967742 72.5725806,56.0258065 72.3445161,54.826129 C72.1054839,53.5693548 72.8432258,50.97 73.0490323,49.7164516 C74.9503226,38.1383871 77.2251613,26.7606452 79.4803226,15.5341935" id="Fill-5"></path>
                    </g>
                </g>
            </g>
        </g>
    </g>
</svg>