<?xml version="1.0" encoding="UTF-8" standalone="no"?>
<svg width="140px" height="101px" viewBox="0 0 140 101" version="1.1" xmlns="http://www.w3.org/2000/svg" xmlns:xlink="http://www.w3.org/1999/xlink">
    <!-- Generator: Sketch 40.3 (33839) - http://www.bohemiancoding.com/sketch -->
    <title>16</title>
    <desc>Created with Sketch.</desc>
    <defs></defs>
    <g id="Page-1" stroke="none" stroke-width="1" fill="none" fill-rule="evenodd">
        <g id="Group-58">
            <rect id="Rectangle-Copy-29" x="0" y="0" width="140" height="100"></rect>
            <g id="sam" transform="translate(10.000000, 41.000000)" fill="#4C4C4C">
                <g id="Page-1">
                    <g id="sam">
                        <path d="M66.1990395,8.16884332 C66.1990395,8.16884332 65.0357154,7.43401507 64.3151881,7.15077225 C64.3151881,7.15077225 62.0907238,6.10063589 61.6479271,5.59828059 C61.6479271,5.59828059 60.7832943,4.76725667 61.2889735,3.79728342 C61.2889735,3.79728342 61.5012015,3.16399509 62.4182362,3.16399509 C62.4182362,3.16399509 63.6130015,3.23079766 63.6130015,4.23016404 L63.6130015,5.64370634 L67.8890035,5.64370634 L67.8811433,3.56481048 C67.8811433,3.56481048 68.2112755,0.160551729 62.8426923,0.0109139815 C62.8426923,0.0109139815 58.6243325,-0.272328898 57.4112265,2.04705619 C57.4112265,2.04705619 56.9369885,2.562772 56.9369885,4.36644127 L56.9369885,5.66775526 C56.9369885,5.66775526 56.8898268,7.16947691 57.6417952,8.13410598 C57.6417952,8.13410598 58.0662513,8.77006643 59.114291,9.47015727 C59.114291,9.47015727 61.2391916,10.6378662 62.5151799,11.3058918 C62.5151799,11.3058918 63.8042688,12.0567526 63.6339623,13.2485104 C63.6339623,13.2485104 63.5317784,14.4723334 62.2872313,14.4242356 C62.2872313,14.4242356 61.1474881,14.3707936 61.1474881,13.1710195 L61.1474881,11.7601492 L56.5911355,11.7601492 L56.5911355,13.809652 C56.5911355,13.809652 56.4627506,17.7269545 62.3212925,17.7269545 C62.3212925,17.7269545 67.9152045,17.8418549 68.1772145,13.70544 L68.1772145,12.0380479 C68.1772145,12.0380479 68.373722,9.50489461 66.1990395,8.16884332" id="Fill-1"></path>
                        <polygon id="Fill-4" points="44.1879933 0.681818182 42.7357619 9.67354841 42.3985893 9.67354841 41.0100755 0.763203184 33.7728125 0.763203184 33.4090909 17.0454545 37.6967577 17.0454545 37.7472009 4.77732159 38.0843734 4.77732159 40.3569696 17.0428292 44.8649933 17.0428292 47.1083855 4.78257223 47.4083895 4.78257223 47.5119307 17.0454545 51.8181818 17.0454545 51.3562289 0.681818182"></polygon>
                        <polygon id="Fill-6" points="18.5270496 0.681818182 15.6818182 17.0454545 20.2861126 17.0454545 21.9709983 4.35835777 22.3498327 4.35835777 24.0347183 17.0454545 28.6363636 17.0454545 25.7937813 0.681818182"></polygon>
                        <path d="M114.584933,8.07051839 L114.584933,10.5193829 L115.733896,10.5193829 L115.733896,13.1448867 C115.733896,14.4295369 114.677674,14.4536241 114.677674,14.4536241 C113.392175,14.4536241 113.438546,13.2332065 113.438546,13.2332065 L113.438546,4.14430616 C113.438546,3.20758204 114.579781,3.15940766 114.579781,3.15940766 C115.674644,3.15940766 115.682373,4.27544753 115.682373,4.27544753 L115.682373,5.65644651 L119.896954,5.65644651 C120.036066,2.95868106 119.51826,2.30565054 119.51826,2.30565054 C118.472343,-0.132508514 114.517953,0.00130921614 114.517953,0.00130921614 C108.438239,0.00130921614 109.113191,4.84551106 109.113191,4.84551106 L109.113191,13.6346596 C109.241998,18.1791098 115.231546,17.7187767 115.334592,17.7107477 C117.998332,17.4056433 118.80209,16.527799 118.80209,16.527799 C119.544021,15.9550591 119.734657,15.1628581 119.734657,15.1628581 C119.945901,14.7025251 120,13.2332065 120,13.2332065 L120,8.07051839 L114.584933,8.07051839 L114.584933,8.07051839 Z" id="Fill-8"></path>
                        <polygon id="Fill-10" points="100.359237 10.6396672 100.174435 10.6396672 95.8510909 0.681818182 90.6818182 0.681818182 90.6818182 17.0454545 94.8880336 17.0454545 94.6381595 7.08760555 94.8255655 7.08760555 99.3024777 17.0454545 104.318182 17.0454545 104.318182 0.681818182 100.057306 0.681818182"></polygon>
                        <path d="M80.0456414,13.1123069 C80.0456414,13.1123069 80.1053618,14.4733869 78.8745989,14.4733869 C78.8745989,14.4733869 77.5789227,14.5425042 77.5789227,13.1468655 L77.5659402,0.681818182 L72.962265,0.681818182 L72.962265,13.0485062 C72.962265,13.0485062 72.4896934,17.7272188 78.9395127,17.7272188 C78.9395127,17.7272188 84.5454545,17.7936778 84.5454545,13.261175 L84.5454545,0.681818182 L80.0456414,0.681818182 L80.0456414,13.1123069 L80.0456414,13.1123069 Z" id="Fill-12"></path>
                        <path d="M9.60551809,8.16858661 C9.60551809,8.16858661 8.44481318,7.43641084 7.72428532,7.15316032 C7.72428532,7.15316032 5.49981929,6.10032363 5.05964226,5.60062702 C5.05964226,5.60062702 4.19238871,4.76423643 4.70068838,3.79958148 C4.70068838,3.79958148 4.91029648,3.16360397 5.82733196,3.16360397 C5.82733196,3.16360397 7.02209816,3.23040833 7.02209816,4.23247373 L7.02209816,5.64338181 L11.2981036,5.64338181 L11.2902433,3.56443013 C11.2902433,3.56443013 11.617756,0.160079947 6.25178838,0.0104381812 C6.25178838,0.0104381812 5.84829277,-0.0162835628 5.25614986,0.01578253 C5.25614986,0.01578253 2.00722418,0.19214604 0.843899175,2.0118968 C0.838658973,2.02525768 0.828178568,2.0332742 0.822938359,2.04663507 C0.822938359,2.04663507 0.348700017,2.56236473 0.348700017,4.36608245 L0.348700017,5.66743138 C0.348700017,5.66743138 0.298918091,7.16652123 1.05088718,8.1365205 C1.05088718,8.1365205 1.4753436,8.76982589 2.52338414,9.46993555 C2.52338414,9.46993555 4.64828635,10.6376757 5.9242757,11.3057193 C5.9242757,11.3057193 7.21336555,12.0539282 7.04567911,13.2483901 C7.04567911,13.2483901 6.94087507,14.472246 5.69632689,14.4241469 C5.69632689,14.4241469 4.5592029,14.3707034 4.5592029,13.1708971 L4.5592029,11.759989 L0.000226535801,11.759989 L0.000226535801,13.8095467 C0.000226535801,13.8095467 -0.12815843,17.7269545 5.7277681,17.7269545 C5.7277681,17.7269545 11.3216845,17.8418579 11.5863147,13.705332 L11.5863147,12.0378951 C11.5863147,12.0378951 11.7828224,9.50467384 9.60551809,8.16858661" id="Fill-14"></path>
                    </g>
                </g>
            </g>
        </g>
    </g>
</svg>