<svg height="249" width="249" xmlns="http://www.w3.org/2000/svg"><path d="M213.477 129.271l.002 6.515c-1.427 1.001-2.866 1.104-3.883.261-1.108-.917-1.348-2.652-.608-4.256l4.49-2.52zM46.66 142.236h.146a2.356 2.356 0 0 0 1.6-.693l5.348-5.346a2.368 2.368 0 0 0 0-3.347l-.778-.778a2.368 2.368 0 0 0-3.345 0l-5.348 5.349a2.365 2.365 0 0 0 0 3.345l.777.777a2.357 2.357 0 0 0 1.6.693zm172.453-6.012l-.346-.064c-.276-.052-.766-.71-.766-1.84l-.003-8.454c0-2.443-.786-4.36-2.21-5.397-1.306-.949-3.1-1.092-5.19-.414-2.463.799-6.218 4.077-6.81 4.806l-.134.164.05.206c.055.213.334.646.525.81l.12.102 4.107-.002s-.01-.977-.01-1.15c0-1.686 1.111-2.489 2.038-2.663.936-.177 1.579-.088 2.024.283.635.526.957 1.707.957 3.508l-.005 1.074-8.672 3.85-.168.077-.058.176c-.8 2.423-.627 4.288.512 5.542 1.795 1.979 6.172 2.254 12.549.815.484-.126 1.494-.231 1.494-.231-.004 0-.004-1.198-.004-1.198zm-31.475-2.217c-1.047 1.78-3.188 2.807-4.873 2.34-1.685-.47-2.6-2.256-2.573-5.031l.002-7.706.187-.095c1.017-.52 2.912-1.488 5.44-.2 1.366.693 2.382 1.988 2.867 3.655.654 2.234.27 4.798-1.05 7.037zm5.039-9.945c-1.276-2.29-2.963-3.704-5.013-4.202-2.84-.69-5.687.55-7.449 1.603l.015-11.045-.54-.346-6.047 1.21v.994s1.04.819 1.146.927c.746.79.74 1.924.738 2.674l-.011 20.78v.258l.23.12c3.445 1.778 7.997 2.043 11.327.657 3.725-1.55 5.305-4.177 5.976-6.11 1.012-2.915.543-5.88-.372-7.52zm3.449 14.152l.004-12.852c.003-.75.006-1.89-.743-2.684-.108-.11-1.147-.928-1.147-.928v-.994l6.052-1.211.542.348-.011 14.302c.037 1.564.552 2.442 1.57 2.683l.327.078v1.255zm-.322-24.393c0-1.35 1.1-2.447 2.454-2.447a2.452 2.452 0 0 1 2.453 2.447 2.453 2.453 0 0 1-4.907 0zm-91.307 22.74c-3.693 0-4.728-2.904-4.732-7.585-.004-3.445 1.034-7.589 4.732-7.589 3.697 0 4.734 4.144 4.732 7.59-.004 4.68-1.039 7.584-4.732 7.584zm9.958-7.558c.002-2.796-.899-5.18-2.619-6.9-1.78-1.777-4.318-2.717-7.344-2.715-5.686.006-9.973 4.137-9.969 9.615.002 5.831 3.916 9.604 9.969 9.61 2.906.001 5.412-.962 7.243-2.792 1.758-1.756 2.719-4.178 2.72-6.818zm59.026 7.875c-1.043-.246-1.59-1.15-1.628-2.674l-.01-8.72c0-2-1.043-5.79-4.992-5.79-2.932 0-4.927 1.741-5.884 2.694-.634-1.343-1.87-2.694-4.277-2.694-1.853 0-3.61.704-5.233 2.097v-1.826l-.538-.346-6.06 1.212v.994s1.043.82 1.147.926c.767.814.77 2.017.77 2.733l.005 12.73 6.592-.003v-1.255l-.325-.078c-1.034-.244-1.554-1.121-1.591-2.683l-.007-10.176c1.158-.975 2.323-1.182 3.555-1.075 1.002.088 2.03.782 2.057 4.396l-.004 10.874 6.585-.003v-1.255l-.325-.078c-1.052-.25-1.581-1.127-1.619-2.683l-.004-8.71c0-.23-.045-.96-.126-1.428 1.188-1.015 2.335-1.223 3.598-1.113 1.002.088 2.03.782 2.057 4.396v10.874l6.581-.003v-1.255zm-30.082 0c-1.084-.255-1.633-1.157-1.633-2.674l.008-14.238-.54-.347-6.059 1.212v.994s1.041.82 1.146.926c.769.815.77 2.018.771 2.733l-.004 8.489c-1.978 1.505-3.811 2.035-5.05 1.446-1.003-.48-1.573-1.664-1.6-3.34v-12.113l-.54-.347-6.059 1.212v.994s1.038.817 1.145.927c.78.824.774 2.036.771 2.76l.001 7.24c.05 1.389.12 1.868.27 2.48.377 1.558 1.286 2.642 2.63 3.144 2.14.794 5.183.02 8.432-2.13v1.968l6.637-.003v-1.255zm-26.77 1.516l.004-22.456c0-.719-.002-1.92-.769-2.735-.109-.108-1.131-.927-1.131-.927v-.995l6.043-1.21.54.347s-.022 23.764-.013 24.08c.078 2.31 1.655 2.467 1.655 2.467v1.43h-6.329zm-23.958-6.92c.143.208.867 1.325.867 1.325-.4 1.696-1.445 3.874-1.445 3.874l-.159.063c-3.959 1.564-10.06 2.87-16.634.213-3.94-1.593-6.732-4.675-7.867-8.68-1.176-4.16-.352-8.713 2.205-12.189 2.825-3.833 7.394-5.94 13.593-6.266 2.334-.125 7.151.512 9.758 1.986l.216.122s.098 6.501.033 6.781l-.073.317s-1.928.068-1.928.07l-.103-.59c-.324-1.884-1.186-6.945-8.24-6.578-3.022.156-5.454 1.672-7.27 4.061-2.21 2.907-2.886 6.938-1.904 11.35.958 4.297 4.219 7.056 6.722 8.023 1.054.408 4.386 1.16 6.918.01 2.205-1.002 4.299-2.615 5.311-3.893zm-43.732-.095a2.366 2.366 0 0 0 0-3.345l-.778-.777a2.363 2.363 0 0 0-3.345 0l-5.349 5.348a2.366 2.366 0 0 0 0 3.345l.778.778a2.363 2.363 0 0 0 3.345 0l5.35-5.349zm4.809-13.983a2.367 2.367 0 0 0 0-3.346l-.779-.778a2.366 2.366 0 0 0-3.345 0l-5.348 5.348a2.367 2.367 0 0 0 0 3.345l.777.779a2.367 2.367 0 0 0 3.346 0zm-4.816-4.817a2.366 2.366 0 0 0 0-3.345l-.776-.777a2.367 2.367 0 0 0-3.347 0l-5.348 5.348a2.366 2.366 0 0 0 0 3.346l.776.777a2.368 2.368 0 0 0 3.348 0l5.347-5.35zm8.89 5.3a2.369 2.369 0 0 0-3.346 0l-.776.779a2.364 2.364 0 0 0 0 3.345l5.347 5.352a2.367 2.367 0 0 0 3.346 0l.778-.78a2.367 2.367 0 0 0 0-3.347l-5.348-5.349zm-4.815 4.816a2.37 2.37 0 0 0-3.346 0l-.777.778a2.37 2.37 0 0 0 0 3.348l5.348 5.348a2.368 2.368 0 0 0 3.347 0l.776-.776a2.365 2.365 0 0 0 0-3.345zm-14.26-4.716a2.365 2.365 0 0 0-3.344 0l-.777.777a2.368 2.368 0 0 0 0 3.346l5.348 5.352a2.366 2.366 0 0 0 3.345 0l.778-.78a2.371 2.371 0 0 0 0-3.348zm.534 10.167a2.365 2.365 0 0 1 0 3.345l-.778.777a2.367 2.367 0 0 1-3.345 0l-5.348-5.349a2.368 2.368 0 0 1-.693-1.647v-.056a2.36 2.36 0 0 1 .693-1.645l.777-.776a2.367 2.367 0 0 1 3.347 0z" fill-rule="evenodd"/></svg>