<?xml version="1.0" encoding="UTF-8" standalone="no"?>
<svg width="140px" height="101px" viewBox="0 0 140 101" version="1.1" xmlns="http://www.w3.org/2000/svg" xmlns:xlink="http://www.w3.org/1999/xlink">
    <!-- Generator: Sketch 40.3 (33839) - http://www.bohemiancoding.com/sketch -->
    <title>17</title>
    <desc>Created with Sketch.</desc>
    <defs></defs>
    <g id="Page-1" stroke="none" stroke-width="1" fill="none" fill-rule="evenodd">
        <g id="Group-45">
            <rect id="Rectangle-Copy-19" x="0" y="0" width="140" height="100"></rect>
            <g id="Audi" transform="translate(20.000000, 32.000000)" fill="#4C4C4C">
                <g id="Page-1">
                    <g id="Audi">
                        <path d="M28.3762712,30.8107345 C25.2937853,33.240113 21.6559322,34.6542373 17.7033898,34.6542373 C8.62655367,34.6542373 0.431638418,27.160452 0.431638418,17.9378531 C0.431638418,13.2118644 2.20847458,8.57062147 5.58022599,5.23502825 C8.61412429,2.24971751 12.8564972,0.363841808 17.1231638,0.363841808 C21.2813559,0.363841808 25.2333333,1.52429379 28.4124294,4.23163842 C31.3977401,1.75367232 35.2774011,0.388135593 39.1694915,0.388135593 C43.1700565,0.388135593 47.0141243,1.7299435 50.0841808,4.2920904 C53.1418079,1.63276836 57.0338983,0.424293785 61.0463277,0.424293785 C64.9745763,0.424293785 68.7338983,1.82655367 71.779661,4.28022599 C75.0429379,1.7299435 78.959322,0.436723164 83.1169492,0.436723164 C86.8276836,0.436723164 90.5988701,1.97175141 93.4514124,4.31638418 C97.379096,7.53163842 99.7242938,12.4508475 99.7242938,17.5271186 C99.7242938,26.9548023 92.1457627,34.7265537 82.6819209,34.7265537 C78.6689266,34.7265537 74.8135593,33.4694915 71.7677966,30.8344633 C68.7457627,33.2158192 64.9508475,34.7146893 61.0706215,34.7146893 C57.0214689,34.7146893 53.1418079,33.4813559 50.0480226,30.8225989 C46.9412429,33.2638418 43.1338983,34.6779661 39.1694915,34.6779661 C35.2175141,34.6779661 31.3615819,33.4333333 28.3762712,30.8107345 L28.3762712,30.8107345 Z M24.6050847,26.4954802 C23.0819209,23.9570621 22.1152542,21.0079096 22.1152542,18.0350282 C22.1152542,14.6141243 22.900565,11.459322 24.6412429,8.51016949 C22.4175141,6.97514124 19.8548023,6.05706215 17.1231638,6.05706215 C10.8384181,6.05706215 6.13672316,11.8824859 6.13672316,17.9016949 C6.13672316,24.0418079 11.7446328,28.9248588 17.7033898,28.9248588 C20.2299435,28.9248588 22.6107345,28.0062147 24.6050847,26.4954802 L24.6050847,26.4954802 Z M28.3638418,21.1288136 C28.8231638,19.9322034 28.980226,18.6751412 28.980226,17.3943503 C28.980226,16.1858757 28.7508475,15.0011299 28.3881356,13.8525424 C28.0254237,14.9768362 27.8079096,16.1372881 27.8079096,17.3214689 C27.8079096,18.6271186 27.9649718,19.8960452 28.3638418,21.1288136 L28.3638418,21.1288136 Z M32.1350282,26.4954802 C34.3587571,28.2480226 36.9576271,28.9372881 39.7740113,28.9372881 C42.1915254,28.9372881 44.4152542,27.9338983 46.3129944,26.5073446 C44.560452,23.6310734 43.7988701,20.4881356 43.7988701,17.1163842 C43.7988701,14.1067797 44.8384181,11.1333333 46.3491525,8.55875706 C44.2581921,7.0480226 41.7920904,6.08079096 39.1813559,6.08079096 C36.5706215,6.08079096 34.1898305,6.96327684 32.159322,8.54689266 C33.9841808,11.5079096 34.6610169,14.7836158 34.6610169,18.240113 C34.6610169,21.1169492 33.6338983,24.0779661 32.1350282,26.4954802 L32.1350282,26.4954802 Z M50.0355932,21.1531073 C50.4225989,19.980791 50.6762712,18.699435 50.6762712,17.4666667 C50.6762712,16.2096045 50.4824859,15.0858757 50.0480226,13.9129944 C49.6728814,15.0615819 49.479661,16.2700565 49.479661,17.4785311 C49.479661,18.7480226 49.5519774,19.9689266 50.0355932,21.1531073 L50.0355932,21.1531073 Z M53.7700565,26.5316384 C56.0186441,28.2118644 58.5689266,28.9853107 61.3610169,28.9853107 C63.7542373,28.9853107 66.1350282,27.9824859 67.9966102,26.5073446 C66.4372881,23.8966102 65.4824859,20.9112994 65.4824859,17.8536723 C65.4824859,14.5536723 66.340678,11.4231638 68.0327684,8.60734463 C65.9898305,7.02372881 63.4757062,6.11751412 60.8892655,6.11751412 C58.3028249,6.11751412 55.8615819,7.03559322 53.8186441,8.59491525 C55.6073446,11.5322034 56.3327684,14.4932203 56.3327684,17.9621469 C56.3327684,20.9836158 55.3418079,23.9694915 53.7700565,26.5316384 L53.7700565,26.5316384 Z M71.7435028,21.1655367 C72.1299435,19.9446328 72.3237288,18.7237288 72.3237288,17.4423729 C72.3237288,16.2457627 72.1180791,15.0734463 71.7553672,13.9372881 C71.4050847,15.0734463 71.1632768,16.1977401 71.1632768,17.3943503 C71.1632768,18.6875706 71.3446328,19.9322034 71.7435028,21.1655367 L71.7435028,21.1655367 Z M75.5384181,26.5559322 C77.5813559,28.1152542 80.0711864,29.0338983 82.6457627,29.0338983 C89.0033898,29.0338983 94.0553672,23.8361582 94.0553672,17.5152542 C94.0553672,11.3146893 88.7011299,6.11751412 82.5367232,6.11751412 C79.9864407,6.11751412 77.5570621,7.05988701 75.5384181,8.58305085 C77.1220339,11.2785311 78.0649718,14.3485876 78.0649718,17.4909605 C78.0649718,20.7062147 77.0011299,23.7276836 75.5384181,26.5559322 L75.5384181,26.5559322 Z" id="Combined-Shape"></path>
                    </g>
                </g>
            </g>
        </g>
    </g>
</svg>