<?xml version="1.0" encoding="UTF-8" standalone="no"?>
<svg width="140px" height="101px" viewBox="0 0 140 101" version="1.1" xmlns="http://www.w3.org/2000/svg" xmlns:xlink="http://www.w3.org/1999/xlink">
    <!-- Generator: Sketch 40.3 (33839) - http://www.bohemiancoding.com/sketch -->
    <title>4</title>
    <desc>Created with Sketch.</desc>
    <defs>
        <polygon id="path-1" points="0.0198347107 80 79.6816529 80 79.6816529 0.320661157 0.0198347107 0.320661157"></polygon>
    </defs>
    <g id="Page-1" stroke="none" stroke-width="1" fill="none" fill-rule="evenodd">
        <g id="Group-47">
            <rect id="Rectangle-Copy-20" x="0" y="0" width="140" height="100"></rect>
            <g id="bmw" transform="translate(30.000000, 10.000000)">
                <g id="Page-1">
                    <g id="bmw">
                        <g id="Group-3">
                            <g id="Fill-1-Clipped">
                                <mask id="mask-2" fill="white">
                                    <use xlink:href="#path-1"></use>
                                </mask>
                                <g id="path-1"></g>
                                <path d="M39.8416529,79.6694215 C18.0208264,79.6694215 0.330578512,61.981157 0.330578512,40.1606612 C0.330578512,18.3401653 18.0208264,0.651239669 39.8416529,0.651239669 C61.6624793,0.651239669 79.3510744,18.3401653 79.3510744,40.1606612 C79.3510744,61.981157 61.6624793,79.6694215 39.8416529,79.6694215 L39.8416529,79.6694215 L39.8416529,79.6694215 Z M39.8416529,0.320661157 C17.8727273,0.320661157 0,18.1930579 0,40.1606612 C0,62.1282645 17.8727273,80 39.8416529,80 C61.8092562,80 79.6816529,62.1282645 79.6816529,40.1606612 C79.6816529,18.1930579 61.8092562,0.320661157 39.8416529,0.320661157 L39.8416529,0.320661157 L39.8416529,0.320661157 Z" id="Fill-1" fill="#4C4C4C" mask="url(#mask-2)"></path>
                            </g>
                        </g>
                        <path d="M39.8416529,79.338843 C18.237686,79.338843 0.661157025,61.7636364 0.661157025,40.1606612 C0.661157025,18.5573554 18.237686,0.981818182 39.8416529,0.981818182 C61.4449587,0.981818182 79.0204959,18.5573554 79.0204959,40.1606612 C79.0204959,61.7636364 61.4449587,79.338843 39.8416529,79.338843 L39.8416529,79.338843 L39.8416529,79.338843 Z M39.8416529,0.651239669 C18.0208264,0.651239669 0.330578512,18.3401653 0.330578512,40.1606612 C0.330578512,61.981157 18.0208264,79.6694215 39.8416529,79.6694215 C61.6624793,79.6694215 79.3510744,61.981157 79.3510744,40.1606612 C79.3510744,18.3401653 61.6624793,0.651239669 39.8416529,0.651239669 L39.8416529,0.651239669 L39.8416529,0.651239669 Z" id="Fill-4" fill="#4C4C4C"></path>
                        <path d="M62.7943802,27.701157 L61.4128926,25.3328926 L66.1775207,19.0743802 L59.027438,22.3533884 L57.0198347,20.4892562 L63.5391736,11.9246281 L65.5477686,13.7897521 L61.7857851,18.7312397 L67.8072727,15.9692562 L69.5639669,18.1633058 L65.5504132,23.4343802 L71.1966942,20.8442975 L72.5765289,23.2115702 L62.7943802,27.701157 L62.7943802,27.701157 L62.7943802,27.701157 Z M39.8416529,64.2585124 C26.5322314,64.2585124 15.7428099,53.4694215 15.7428099,40.1606612 C15.7428099,26.8512397 26.5322314,16.0631405 39.8416529,16.0631405 C53.1500826,16.0631405 63.9395041,26.8512397 63.9395041,40.1606612 C63.9395041,53.4694215 53.1500826,64.2585124 39.8416529,64.2585124 L39.8416529,64.2585124 L39.8416529,64.2585124 Z M9.27570248,21.8624793 C8.98512397,21.6290909 8.69421488,21.3963636 8.40264463,21.1629752 C8.39570248,21.157686 8.29586777,21.0816529 8.29983471,21.0783471 C8.34942149,21.0165289 8.39834711,20.9543802 8.44793388,20.892562 C9.19735537,19.9560331 9.94710744,19.0195041 10.6978512,18.0829752 C11.5712397,16.991405 12.4439669,15.9008264 13.3183471,14.8099174 C13.4852893,14.6 13.652562,14.3910744 13.8195041,14.1824793 C14.113719,13.814876 14.5061157,13.5322314 14.9464463,13.3682645 C15.882314,13.0181818 16.9656198,13.2472727 17.6796694,13.9438017 C18.0300826,14.2856198 18.2803306,14.7252893 18.3960331,15.2006612 C18.5147107,15.6892562 18.4717355,16.1695868 18.332562,16.6459504 C18.397686,16.593719 18.461157,16.534876 18.5295868,16.4859504 C19.3715702,15.8899174 20.4813223,15.7269421 21.4360331,16.1606612 C22.3877686,16.593719 23.0082645,17.458843 23.1553719,18.488595 C23.191405,18.873719 23.1728926,19.2631405 23.0601653,19.6360331 C22.84,20.3606612 22.3289256,20.9057851 21.8661157,21.4836364 C20.9695868,22.6029752 20.0733884,23.7226446 19.1768595,24.8416529 C18.4290909,25.7758678 17.6809917,26.7097521 16.9328926,27.6446281 C16.8783471,27.7130579 16.8231405,27.7818182 16.7682645,27.8512397 C16.7566942,27.865124 16.6919008,27.8003306 16.6806612,27.7904132 C16.4016529,27.5679339 16.1246281,27.3457851 15.8469421,27.1236364 C14.7563636,26.2509091 13.6661157,25.3781818 12.5778512,24.5057851 C11.4766942,23.6241322 10.3761983,22.7431405 9.27570248,21.8624793 L9.27570248,21.8624793 L9.27570248,21.8624793 Z M33.614876,4.01289256 L37.2297521,3.61090909 L39.8416529,11.242314 L42.4519008,3.61090909 L46.0661157,4.01289256 L46.4684298,14.8568595 L43.6565289,14.4552066 L43.3884298,7.22578512 L40.8452893,14.4552066 L38.8366942,14.4552066 L36.2942149,7.22578512 L36.0261157,14.4552066 L33.2138843,14.8568595 L33.614876,4.01289256 L33.614876,4.01289256 L33.614876,4.01289256 Z M39.8416529,1.60396694 C18.5467769,1.60396694 1.28396694,18.8661157 1.28396694,40.1606612 C1.28396694,61.4545455 18.5467769,78.7166942 39.8416529,78.7166942 C61.1352066,78.7166942 78.397686,61.4545455 78.397686,40.1606612 C78.397686,18.8661157 61.1352066,1.60396694 39.8416529,1.60396694 L39.8416529,1.60396694 L39.8416529,1.60396694 Z" id="Fill-5" fill="#4C4C4C"></path>
                        <path d="M16.8287603,24.3080992 C16.8690909,24.3404959 16.9097521,24.3728926 16.9504132,24.4052893 C16.9557025,24.4095868 16.9768595,24.3761983 16.9804959,24.3722314 C17.7679339,23.3887603 18.5566942,22.4046281 19.3441322,21.421157 C19.6300826,21.0634711 19.9163636,20.7054545 20.2033058,20.3471074 C20.4928926,19.985124 20.5520661,19.5150413 20.3758678,19.0882645 C20.1649587,18.648595 19.7322314,18.3586777 19.2360331,18.374876 C18.8221488,18.3877686 18.507438,18.6089256 18.2581818,18.9203306 C17.9107438,19.3547107 17.5626446,19.7897521 17.214876,20.2241322 C16.5004959,21.1166942 15.7861157,22.0089256 15.0717355,22.9014876 C15.4429752,23.1983471 15.814876,23.4961983 16.1861157,23.7933884 C16.4006612,23.9652893 16.6138843,24.1361983 16.8287603,24.3080992" id="Fill-6" fill="#4C4C4C"></path>
                        <path d="M16.7441322,17.4271074 C16.8320661,17.0340496 16.7418182,16.6231405 16.4680992,16.3213223 C16.1292562,15.9487603 15.5804959,15.825124 15.1133884,16.0175207 C14.7715702,16.1590083 14.5719008,16.4558678 14.3490909,16.7338843 C13.505124,17.7884298 12.6598347,18.8442975 11.8158678,19.8991736 C11.8026446,19.9140496 11.6208264,20.1371901 11.625124,20.1414876 C11.7983471,20.28 11.9709091,20.4185124 12.1441322,20.5570248 C12.5970248,20.9196694 13.0509091,21.2829752 13.5038017,21.6459504 C13.9490909,21.0902479 14.3947107,20.5338843 14.84,19.9771901 C15.2842975,19.4218182 15.7292562,18.8661157 16.1732231,18.3110744 C16.3960331,18.033719 16.6433058,17.7765289 16.7441322,17.4271074" id="Fill-7" fill="#4C4C4C"></path>
                        <path d="M16.9646281,40.1603306 L39.8406612,40.1603306 L39.8406612,17.2839669 C27.3523967,17.6082645 17.2879339,27.6723967 16.9646281,40.1603306" id="Fill-8" fill="#4C4C4C"></path>
                        <path d="M39.8406612,63.0380165 C52.3305785,62.7127273 62.393719,52.6492562 62.7186777,40.1603306 L39.8406612,40.1603306 L39.8406612,63.0380165" id="Fill-9" fill="#4C4C4C"></path>
                    </g>
                </g>
            </g>
        </g>
    </g>
</svg>