<?xml version="1.0" encoding="UTF-8" standalone="no"?>
<svg width="140px" height="101px" viewBox="0 0 140 101" version="1.1" xmlns="http://www.w3.org/2000/svg" xmlns:xlink="http://www.w3.org/1999/xlink">
    <!-- Generator: Sketch 40.3 (33839) - http://www.bohemiancoding.com/sketch -->
    <title>18</title>
    <desc>Created with Sketch.</desc>
    <defs></defs>
    <g id="Page-1" stroke="none" stroke-width="1" fill="none" fill-rule="evenodd">
        <g id="Group-25">
            <rect id="Rectangle-Copy-14" x="0" y="0" width="140" height="100"></rect>
            <g id="ck" transform="translate(10.000000, 40.000000)" fill="#4C4C4C">
                <g id="Page-1">
                    <g id="ck">
                        <path d="M15.4372457,3.33474811 C13.9499564,2.19692482 12.1194825,1.51968262 10.1322308,1.51968262 C5.36987236,1.51968262 1.50921946,5.40830301 1.50921946,10.2051611 C1.50921946,15.0020192 5.36987236,18.8906396 10.1322308,18.8906396 C12.1283479,18.8906396 13.9637211,18.2086976 15.4253474,17.0617097 L16.3881776,18.2333716 C14.6654884,19.5972556 12.4932295,20.4105572 10.1322308,20.4105572 C4.53629046,20.4105572 0,15.8416397 0,10.2051611 C0,4.56891744 4.53629046,0 10.1322308,0 C12.5494549,0 14.7690737,0.852545004 16.5395894,2.27517661 L15.4372457,3.33474811 L15.4372457,3.33474811 L15.4372457,3.33474811 Z" id="Fill-1"></path>
                        <polygon id="Fill-3" points="33.0791789 20.058651 34.4868035 20.058651 34.4868035 0 33.0791789 0"></polygon>
                        <polygon id="Fill-5" points="42.0527859 20.7624633 35.8944282 7.39002933 37.6398338 7.39002933 42.0527859 17.0958586 46.4657381 7.39002933 48.2111437 7.39002933"></polygon>
                        <polygon id="Fill-6" points="50.3225806 19.7067449 51.7302053 19.7067449 51.7302053 7.39002933 50.3225806 7.39002933"></polygon>
                        <path d="M49.9706745,0.879765396 C49.9706745,0.39387745 50.3644504,0 50.8504399,0 C51.3362027,0 51.7302053,0.39387745 51.7302053,0.879765396 C51.7302053,1.36565334 51.3362027,1.75953079 50.8504399,1.75953079 C50.3644504,1.75953079 49.9706745,1.36565334 49.9706745,0.879765396" id="Fill-7"></path>
                        <path d="M54.5454545,20.058651 L54.5454545,7.45940273 L56.0755921,7.45940273 L56.0755921,8.57024298 C56.0755921,8.57024298 57.0574684,7.03812317 59.6586785,7.03812317 C62.2603643,7.03812317 64.7507331,9.20595769 64.7507331,12.0057115 L64.7507331,20.058651 L63.1837274,20.058651 L63.1837274,12.2265512 C63.1837274,10.7376031 62.1338242,8.57024298 59.5478368,8.57024298 C56.9620874,8.57024298 56.0755921,10.86356 56.0755921,11.7846347 L56.0755921,20.058651 L54.5454545,20.058651 L54.5454545,20.058651 Z" id="Fill-8"></path>
                        <polygon id="Fill-9" points="71.7888563 0 71.7888563 20.058651 73.1780217 20.058651 73.1780217 11.4447299 74.6924266 9.93321055 81.8736662 20.058651 83.7174123 20.058651 75.6795086 8.67737113 83.7536657 0 81.7274755 0 73.1780217 9.10906592 73.1780217 0"></polygon>
                        <polygon id="Fill-10" points="86.2170088 20.058651 87.6246334 20.058651 87.6246334 0 86.2170088 0"></polygon>
                        <polygon id="Fill-11" points="105.571848 19.7067449 106.979472 19.7067449 106.979472 7.39002933 105.571848 7.39002933"></polygon>
                        <path d="M105.219941,0.879765396 C105.219941,0.39387745 105.613717,0 106.099707,0 C106.58547,0 106.979472,0.39387745 106.979472,0.879765396 C106.979472,1.36565334 106.58547,1.75953079 106.099707,1.75953079 C105.613717,1.75953079 105.219941,1.36565334 105.219941,0.879765396" id="Fill-12"></path>
                        <path d="M109.794721,20.058651 L109.794721,7.45940273 L111.324895,7.45940273 L111.324895,8.57024298 C111.324895,8.57024298 112.306794,7.03812317 114.908065,7.03812317 C117.509573,7.03812317 120,9.20595769 120,12.0057115 L120,20.058651 L118.432958,20.058651 L118.432958,12.2265512 C118.432958,10.7376031 117.38303,8.57024298 114.79722,8.57024298 C112.211411,8.57024298 111.324895,10.86356 111.324895,11.7846347 L111.324895,20.058651 L109.794721,20.058651 L109.794721,20.058651 Z" id="Fill-13"></path>
                        <path d="M103.108504,13.7206664 C103.108504,10.027894 100.120516,7.03812317 96.4258445,7.03812317 C92.7311733,7.03812317 89.7360704,10.0316863 89.7360704,13.7242217 C89.7360704,17.416994 92.7311733,20.4105572 96.4258445,20.4105572 C99.0436543,20.4105572 101.368831,18.883437 102.467747,16.6938458 L101.099912,16.0356412 C100.249758,17.7388672 98.459811,18.9090352 96.4258445,18.9090352 C93.2509883,18.9090352 91.3405728,16.4971192 91.2416847,13.7206664 L103.108504,13.7206664 L103.108504,13.7206664 Z M91.4375638,12.3900358 C92.0403787,10.1938081 94.0373507,8.53964516 96.4258445,8.53964516 C98.8190808,8.53964516 100.833602,10.1874085 101.432385,12.3900358 L91.4375638,12.3900358 L91.4375638,12.3900358 Z" id="Fill-14"></path>
                        <path d="M28.8640029,18.165808 C27.6429701,19.7454811 25.7164569,20.7624633 23.567148,20.7624633 C19.8801031,20.7624633 16.8914956,17.7691262 16.8914956,14.0760112 C16.8914956,10.3833665 19.8801031,7.39002933 23.567148,7.39002933 C25.7277258,7.39002933 27.6378052,8.41759284 28.8581337,10.0116095 L28.8581337,7.73686138 L30.2639296,7.73686138 L30.2639296,20.2265784 L28.8581337,20.2265784 L28.8640029,18.165808 L28.8640029,18.165808 Z M18.337437,14.0760112 C18.337437,11.1833141 20.6790215,8.838259 23.567148,8.838259 C26.4555093,8.838259 28.7970938,11.1833141 28.7970938,14.0760112 C28.7970938,16.9689434 26.4555093,19.3142337 23.567148,19.3142337 C20.6790215,19.3142337 18.337437,16.9689434 18.337437,14.0760112 L18.337437,14.0760112 L18.337437,14.0760112 Z" id="Fill-15"></path>
                    </g>
                </g>
            </g>
        </g>
    </g>
</svg>