<?xml version="1.0" encoding="UTF-8" standalone="no"?>
<svg width="140px" height="101px" viewBox="0 0 140 101" version="1.1" xmlns="http://www.w3.org/2000/svg" xmlns:xlink="http://www.w3.org/1999/xlink">
    <!-- Generator: Sketch 40.3 (33839) - http://www.bohemiancoding.com/sketch -->
    <title>1</title>
    <desc>Created with Sketch.</desc>
    <defs></defs>
    <g id="Page-1" stroke="none" stroke-width="1" fill="none" fill-rule="evenodd">
        <g id="Group-4">
            <rect id="Rectangle" x="0" y="0" width="140" height="100"></rect>
            <g id="dg" transform="translate(10.000000, 44.000000)" fill="#4C4C4C">
                <g id="Page-1">
                    <g id="dg">
                        <path d="M9.54095135,5.73723243 C9.54095135,2.56858378 12.2672216,-6.48648649e-05 15.6300324,-6.48648649e-05 C18.9930595,-6.48648649e-05 21.7191135,2.56858378 21.7191135,5.73723243 C21.7191135,8.90588108 18.9930595,11.4745297 15.6300324,11.4745297 C12.2672216,11.4745297 9.54095135,8.90588108 9.54095135,5.73723243 M11.2499243,5.73723243 C11.2499243,3.39236757 13.2112216,1.49161081 15.6300324,1.49161081 C18.0490595,1.49161081 20.0101405,3.39236757 20.0101405,5.73723243 C20.0101405,8.0820973 18.0490595,9.98285405 15.6300324,9.98285405 C13.2112216,9.98285405 11.2499243,8.0820973 11.2499243,5.73723243" id="Fill-1"></path>
                        <polygon id="Fill-4" points="22.1594162 11.1904649 22.1594162 0.270681081 23.794227 0.270681081 23.794227 9.82873514 26.9230919 9.82873514 26.9230919 11.1904649"></polygon>
                        <path d="M0,0.270594595 L3.25945946,0.270594595 C6.79264865,0.270594595 9.05405405,2.67167568 9.05405405,5.79167568 C9.05405405,8.31037838 7.41967568,11.1903784 3.42227027,11.1903784 L0,11.1903784 L0,0.270594595 L0,0.270594595 Z M1.78097297,1.67448649 L1.78097297,9.82281081 L3.63156757,9.82281081 C5.71502703,9.82281081 7.29189189,8.00443243 7.29189189,5.76832432 C7.29189189,3.6852973 5.80345946,1.67448649 3.45448649,1.67448649 L1.78097297,1.67448649 L1.78097297,1.67448649 Z" id="Fill-6"></path>
                        <polygon id="Fill-8" points="41.6847568 11.1904649 41.6847568 9.82873514 37.7725405 9.82873514 37.7725405 6.15132973 41.5764324 6.15132973 41.5764324 4.81295135 37.7725405 4.81295135 37.7725405 1.67435676 41.6847568 1.67435676 41.6847568 0.270681081 36.024 0.270681081 36.024 11.1904649"></polygon>
                        <path d="M65.6456865,6.73290811 L68.7196324,6.73290811 L67.1814703,2.90458378 L65.6456865,6.73290811 L65.6456865,6.73290811 Z M72.2740108,11.1904216 L67.7068757,0.270637838 L66.6562811,0.270637838 L62.0891459,11.1904216 L63.8539027,11.1904216 L65.0915243,8.11301622 L69.2731459,8.11301622 L70.5092541,11.1904216 L72.2740108,11.1904216 L72.2740108,11.1904216 Z" id="Fill-10"></path>
                        <path d="M91.6547676,6.73290811 L94.7287135,6.73290811 L93.1905514,2.90458378 L91.6547676,6.73290811 L91.6547676,6.73290811 Z M98.2830919,11.1904216 L93.7157405,0.270637838 L92.6655784,0.270637838 L88.0980108,11.1904216 L89.8629838,11.1904216 L91.1010378,8.11301622 L95.2824432,8.11301622 L96.5183351,11.1904216 L98.2830919,11.1904216 L98.2830919,11.1904216 Z" id="Fill-12"></path>
                        <path d="M113.331503,6.73290811 L116.405449,6.73290811 L114.867286,2.90458378 L113.331503,6.73290811 L113.331503,6.73290811 Z M119.960043,11.1904216 L115.392692,0.270637838 L114.342314,0.270637838 L109.774962,11.1904216 L111.539719,11.1904216 L112.777773,8.11301622 L116.959395,8.11301622 L118.19507,11.1904216 L119.960043,11.1904216 L119.960043,11.1904216 Z" id="Fill-14"></path>
                        <path d="M57.7242378,5.65191351 L63.0316973,5.65191351 L63.0316973,5.73731892 C63.0316973,9.5291027 61.1456432,11.4744 57.4851027,11.4744 C54.1220757,11.4744 51.3958054,8.90575135 51.3958054,5.73731892 C51.3958054,2.56867027 54.1220757,2.16216216e-05 57.4851027,2.16216216e-05 C59.6928865,2.16216216e-05 61.5988324,1.12715676 62.4944,2.76434595 L61.1681297,3.43872432 C60.3789405,2.26726486 59.0301838,1.4916973 57.4851027,1.4916973 C55.0658595,1.4916973 53.1052108,3.39245405 53.1052108,5.73731892 C53.1052108,8.08218378 55.0658595,9.98294054 57.4851027,9.98294054 C59.4502919,9.98294054 61.2217514,8.8676973 61.2217514,6.99980541 L57.7242378,6.99980541 L57.7242378,5.65191351 L57.7242378,5.65191351 Z" id="Fill-17"></path>
                        <polygon id="Fill-20" points="100.507589 3.24566486 100.507589 11.1905297 98.8902919 11.1905297 98.8902919 0.27052973 99.9493189 0.27052973 107.614832 8.41085405 107.614832 0.27052973 109.175049 0.27052973 109.175049 11.1905297 108.042292 11.1905297"></polygon>
                        <path d="M35.5595459,10.4051892 C34.5826811,11.0782703 33.3863568,11.4743784 32.0933838,11.4743784 C28.2373838,11.4743784 26.1320865,8.90572973 26.1320865,5.7372973 C26.1320865,2.56864865 28.2564108,0 32.0933838,0 C33.3837622,0 34.5748973,0.394594595 35.5595459,1.06508108 L35.5595459,2.68627027 C34.7318703,1.94681081 33.6198703,1.49167568 32.3904649,1.49167568 C29.8780324,1.49167568 27.8412757,3.39243243 27.8412757,5.7372973 C27.8412757,8.08216216 29.8780324,9.98291892 32.3904649,9.98291892 C33.6226811,9.98291892 34.7310054,9.52562162 35.5595459,8.78313514 L35.5595459,10.4051892 L35.5595459,10.4051892 Z" id="Fill-22"></path>
                        <path d="M77.5941622,3.25602162 C77.5941622,2.09212973 76.9007568,1.6744 75.9202162,1.6744 L74.5431351,1.6744 L74.5431351,4.90337297 L75.7483243,4.90337297 C76.5429189,4.90337297 77.5941622,4.41991351 77.5941622,3.25602162 M78.5450811,8.04931892 C78.5450811,6.72153514 77.6354595,6.24521081 76.3491892,6.24521081 L74.5431351,6.24521081 L74.5431351,9.92867027 L76.3491892,9.92867027 C77.3911351,9.92867027 78.5450811,9.37731892 78.5450811,8.04931892 M79.3124324,3.18488649 C79.3124324,1.25515676 78.1628108,0.270508108 75.451027,0.270508108 L72.7535135,0.270508108 L72.7535135,11.1905081 L76.4585946,11.1905081 C77.9636757,11.1905081 80.3344865,10.727373 80.3344865,8.11288649 C80.3344865,5.91094054 78.0774054,5.30142703 78.0774054,5.30142703 C78.0774054,5.30142703 79.3124324,4.57645405 79.3124324,3.18488649" id="Fill-25"></path>
                        <path d="M85.889773,3.25602162 C85.889773,2.09212973 85.1963676,1.6744 84.215827,1.6744 L82.8385297,1.6744 L82.8385297,4.90337297 L84.0439351,4.90337297 C84.8383135,4.90337297 85.889773,4.41991351 85.889773,3.25602162 M86.8404757,8.04931892 C86.8404757,6.72153514 85.9310703,6.24521081 84.6448,6.24521081 L82.8385297,6.24521081 L82.8385297,9.92867027 L84.6448,9.92867027 C85.6867459,9.92867027 86.8404757,9.37731892 86.8404757,8.04931892 M87.6080432,3.18488649 C87.6080432,1.25515676 86.4584216,0.270508108 83.7466378,0.270508108 L81.0489081,0.270508108 L81.0489081,11.1905081 L84.7542054,11.1905081 C86.2592865,11.1905081 88.6300973,10.727373 88.6300973,8.11288649 C88.6300973,5.91094054 86.3730162,5.30142703 86.3730162,5.30142703 C86.3730162,5.30142703 87.6080432,4.57645405 87.6080432,3.18488649" id="Fill-27"></path>
                        <path d="M46.4949189,7.64886486 C46.848,7.45967568 47.1055135,7.25189189 47.1055135,6.9187027 C47.1055135,6.80345946 47.0389189,6.40302703 46.5667027,6.40302703 C45.9686486,6.40302703 45.9610811,7.01881081 46.2101622,7.31610811 L46.4949189,7.64886486 L46.4949189,7.64886486 Z M46.2441081,8.64605405 C45.7850811,8.91243243 45.4134054,9.20627027 45.4134054,9.69535135 C45.4134054,10.235027 45.8687568,10.5035676 46.3027027,10.5035676 C46.6821622,10.5035676 47.0668108,10.3014054 47.412973,10.0285405 L46.4572973,8.89556757 C46.3827027,8.8067027 46.3115676,8.72410811 46.2441081,8.64605405 L46.2441081,8.64605405 L46.2441081,8.64605405 Z M46.9915676,8.22832432 L48.0328649,9.43740541 C48.4255135,9.00021622 48.6836757,8.59437838 48.6836757,8.59437838 L49.2912432,9.20216216 C49.2912432,9.20216216 49.0164324,9.60756757 48.5749189,10.0648649 L49.5485405,11.1904865 L48.3909189,11.1904865 L47.9334054,10.6456216 C47.4434595,11.0265946 46.860973,11.3334054 46.2579459,11.3334054 C45.1435676,11.3334054 44.5100541,10.5669189 44.5100541,9.71459459 C44.5100541,8.79135135 45.0912432,8.35286486 45.7061622,8.03372973 C45.3491892,7.61664865 45.1857297,7.35156757 45.1857297,6.89167568 C45.1857297,6.18421622 45.7225946,5.63632432 46.5548108,5.63632432 C47.3874595,5.63632432 47.9567568,6.07848649 47.9567568,6.84302703 C47.9567568,7.5292973 47.5007568,7.91589189 46.9915676,8.22832432 L46.9915676,8.22832432 L46.9915676,8.22832432 Z" id="Fill-29"></path>
                    </g>
                </g>
            </g>
        </g>
    </g>
</svg>