<?xml version="1.0" encoding="UTF-8" standalone="no"?>
<svg width="140px" height="101px" viewBox="0 0 140 101" version="1.1" xmlns="http://www.w3.org/2000/svg" xmlns:xlink="http://www.w3.org/1999/xlink">
    <!-- Generator: Sketch 40.3 (33839) - http://www.bohemiancoding.com/sketch -->
    <title>20</title>
    <desc>Created with Sketch.</desc>
    <defs></defs>
    <g id="Page-1" stroke="none" stroke-width="1" fill="none" fill-rule="evenodd">
        <g id="Group-41">
            <rect id="Rectangle-Copy-17" x="0" y="0" width="140" height="100"></rect>
            <g id="jaguar_new_logo" transform="translate(10.000000, 23.000000)" fill="#4C4C4C">
                <g id="Page-1">
                    <g id="jaguar_new_logo">
                        <g id="Clip-2" transform="translate(11.570248, 0.000000)">
                            <path d="M13.7774305,4.70027964 C14.5923967,4.9461443 15.3225845,5.38602456 15.9612622,5.89949699 C14.015988,4.8177762 12.8968295,4.6001358 12.8246732,4.58821891 L12.8036364,4.58633729 C12.4986025,4.54034218 12.2461608,4.48598436 12.016018,4.42828145 C12.392577,4.35071699 12.7419985,4.23447488 13.0600751,4.09021755 C13.0609166,4.09732588 13.0609166,4.10338889 13.0609166,4.1086156 C13.2092261,4.51211795 13.6024042,4.6534483 13.7774305,4.70027964 L13.7774305,4.70027964 L13.7774305,4.70027964 Z M4.46927124,5.39543266 C4.46927124,5.39543266 4.55257702,5.15542195 4.57403455,5.0970918 C4.59738542,5.0391798 4.82752817,4.4132285 5.39930879,4.35427117 C5.39930879,4.35427117 5.73021788,4.3342006 6.24015025,4.3342006 C6.24015025,4.3342006 5.990864,5.13116998 5.00907587,5.30302433 C5.00907587,5.30302433 4.62410218,5.38999686 4.46927124,5.39543266 L4.46927124,5.39543266 L4.46927124,5.39543266 Z M103.092802,31.1666884 C102.89127,31.8624686 101.892652,32.7911512 100.678618,33.3255306 C99.403997,33.8923154 96.7453643,34.0409633 95.2094664,33.7919623 C95.2050489,33.7919623 92.2308641,33.4917402 89.6250337,30.7857655 C88.8035461,29.9319294 87.7920962,28.9633147 86.8584823,28.0066169 C86.4480542,27.5786536 85.437235,26.5744972 83.757235,26.3516301 C82.006762,26.1174733 77.7333435,26.0016493 76.1259203,25.4718696 C75.0517805,25.1160348 73.7561233,24.3926576 72.0329977,21.8558195 C71.2030955,20.640922 70.6138542,20.3074577 69.4852291,19.5957883 C69.4852291,19.5957883 70.3504734,20.2792334 70.8410519,21.1428957 C71.54852,22.3960527 71.905725,23.308428 72.2906988,23.9759839 C72.6760932,24.6464668 73.1121864,25.2404306 73.7685349,25.7656109 C74.5858152,26.4181139 75.0961683,26.54021 75.9811871,26.6861398 C76.8291812,26.8266339 79.6895567,26.8009185 82.1437114,26.7647496 C84.558317,26.72649 85.6356122,27.5015073 86.4289107,28.1659272 C87.163516,28.7795434 88.4219385,30.5369739 89.1954621,31.308855 C90.1181369,32.2206031 90.7929977,33.153676 92.6173104,34.0675147 C93.2500975,34.3871808 94.2867917,35.1701425 94.2337792,35.9259253 C93.4141848,36.7417111 92.396003,36.9562152 89.9542598,36.3081028 C90.126762,36.4759848 91.4049587,37.8100512 93.5921564,37.1790823 C92.9322314,37.7266331 92.2857702,37.9597445 91.6109091,37.9237848 C89.3225243,37.7977164 87.0802102,34.9961974 85.8236813,33.9608899 C84.8683997,33.1758374 84.7579564,32.9784767 83.1358076,31.8624686 C80.6717656,30.1671316 75.1435012,30.6448533 75.1435012,30.6448533 L71.0863412,30.85434 C63.1849137,31.4476766 59.8665666,24.4919652 58.9920661,23.040402 C58.6870324,22.5367559 58.4133435,22.1301175 58.150804,21.8004164 C57.7477385,21.2660371 55.5887302,18.4824981 53.4057402,17.5684503 C53.4057402,17.5684503 55.5510744,19.4034452 55.4242225,20.6170882 C55.4242225,20.6170882 54.5347858,20.2071048 52.1170248,20.5499772 C41.7082195,22.0245379 38.1656198,19.4352236 38.1656198,19.4352236 C38.6488354,17.3623087 37.1926671,15.2344088 37.1926671,15.2344088 C37.9954321,15.4877999 43.112637,17.2061345 47.9729828,16.2253938 C47.9729828,16.2253938 40.0639818,16.2674166 34.5184674,11.8711226 C34.5184674,11.8711226 37.9695567,16.1685271 37.1505934,18.9823811 C37.1505934,18.9823811 36.5842826,21.9808425 30.5683848,20.771799 C29.9263412,20.6459397 29.1704883,20.4324807 20.1656799,17.9495823 C18.049166,17.3196587 17.3181367,18.3244422 16.9363185,18.9278141 C16.9201202,19.8125924 15.8712246,20.844973 15.3423591,21.168402 C12.5560331,20.6695644 13.6659354,18.1001117 13.6659354,18.1001117 C11.9120962,20.5928363 13.7490308,21.6940005 14.330278,21.7726102 C13.9829602,21.9402832 13.6535237,22.0611249 13.3745755,22.1637775 C13.3745755,22.1637775 11.0973403,20.8161215 12.3694365,18.6075211 C14.1447333,15.5287773 15.9524267,14.5413464 19.2665665,14.2402877 C20.7162134,14.1025115 21.9245679,14.000277 22.8447183,14.1257181 C25.2488053,14.4556283 26.7554621,15.8047478 30.3559127,16.1522198 C22.7136588,13.9153951 22.6970397,9.51680142 22.670954,9.43359213 C22.6696919,9.43275587 22.6677987,9.42439312 22.6677987,9.42439312 C22.2443276,10.8763743 22.4774155,12.0990074 22.8501878,13.1315971 C22.7443726,13.0945919 21.0736289,12.0028358 20.4366341,11.6181497 C17.692592,9.95270939 15.526852,9.6621041 15.526852,9.6621041 C14.6167994,9.54732545 14.1929076,8.44846102 14.1929076,8.44846102 C14.1615627,8.39222159 14.1289557,8.34079071 14.0974005,8.28810542 C12.831405,6.13992585 11.580556,6.09727587 11.580556,6.09727587 C12.0277986,6.70190218 12.197145,7.47022916 12.2606762,7.9496234 C12.2970699,8.22559392 12.3324117,8.72986731 12.3311495,8.88144205 C12.3084298,11.1751334 9.63486099,11.8985106 9.63486099,11.8985106 C7.77099924,14.2486504 7.86818932,14.2973634 7.45418483,14.3579933 C7.0376559,14.4159053 6.12907587,13.9557454 6.12907587,13.9557454 C6.0583922,13.918113 6.03966942,13.8158785 6.05145005,13.7487675 C6.07416979,13.6066009 6.19071375,13.5167014 6.19071375,13.5167014 C6.54034562,13.2415671 6.82539445,12.9674782 6.82539445,12.9674782 C8.79465064,10.9658557 9.03089405,9.98866919 8.7877085,8.69098056 C8.28997745,6.08807683 6.41812172,6.39101719 6.41812172,6.39101719 C5.50680691,6.47736251 5.14013524,7.22436453 5.14013524,7.22436453 C4.82752817,7.70396783 4.16486853,9.17162922 4.16486853,9.17162922 C3.75801653,10.0467902 3.34338093,10.2443601 3.12817431,10.283874 C3.03413974,10.3003904 2.86100678,10.2972544 2.80399699,10.2955819 C2.17099924,10.2732115 1.68967693,9.69220995 1.68967693,9.69220995 C1.66043577,9.6621041 1.63245679,9.63116195 1.61078889,9.60607372 C1.03143501,8.98806701 1.45132982,8.18106231 1.45132982,8.18106231 C2.23158529,6.37387359 3.7477085,6.11149253 3.95239669,6.08535894 C4.16486853,6.05880724 4.86202856,5.9580362 4.86202856,5.9580362 C6.78731782,5.63607058 7.69631855,3.64364707 7.69631855,3.64364707 C6.39834711,3.62775788 5.76429752,3.71284879 5.76429752,3.71284879 C4.48736288,3.9348796 4.05274231,5.43013805 4.05274231,5.42783828 C2.9716604,5.67349385 2.99942899,4.75024704 3.18918106,4.46800446 C3.35873779,4.20750502 3.99404959,3.09985973 8.14650638,2.14483449 C8.14650638,2.14483449 10.1942299,1.53226357 14.5707288,1.7289971 C14.5707288,1.7289971 14.5707288,1.7289971 14.3902329,2.0622524 C14.0035763,2.78981103 12.4687303,4.2894599 9.93190083,3.73396469 C9.93190083,3.73396469 9.95377911,4.85394506 12.7053944,5.25514764 C12.7053944,5.25514764 15.1938392,5.69690955 19.4136138,9.06688585 C19.4136138,9.06688585 17.3951315,5.08329329 13.9703381,4.05195802 C13.9703381,4.05195802 13.54287,3.96059504 13.7521863,3.69424169 C13.7521863,3.69424169 15.7761382,1.80426178 18.5883396,1.80593433 C18.5883396,1.80593433 27.3611121,1.9930507 32.9325018,7.78571365 C32.9325018,7.78571365 32.6884747,6.77842126 31.8114499,5.35111012 C31.8114499,5.35111012 31.8114499,5.35111012 31.443516,4.75631002 C31.443516,4.75631002 31.7775808,4.79394238 32.6933134,4.94300826 C32.6933134,4.94300826 36.0419534,5.3578003 43.9084598,8.05729372 C43.9084598,8.05729372 49.8015025,9.98093365 53.0272876,11.2529068 C57.8745904,13.1715292 70.0197745,17.8473478 77.7617431,22.0425178 C79.1447031,22.7897288 93.1484899,30.0471262 93.1484899,30.0471262 C97.0264162,31.7780049 99.710924,30.7257628 99.710924,30.7257628 C100.583741,30.3962707 102.166972,29.1870181 102.859714,29.8710904 C103.216499,30.2246254 103.264042,30.7013018 103.092802,31.1666884 L103.092802,31.1666884 L103.092802,31.1666884 Z M7.31471074,7.48172793 C6.90996245,7.1999035 6.45682945,7.14512754 6.0470323,7.21035693 C6.22794893,7.07697117 6.51573253,7.05961848 6.51573253,7.05961848 C6.70485349,7.03724817 7.60270473,7.00275183 8.01860255,8.39953898 C7.84063111,7.9989636 7.59828701,7.67908866 7.31471074,7.48172793 L7.31471074,7.48172793 L7.31471074,7.48172793 Z M0.685379405,7.8739406 C1.57081894,6.57646102 2.72531931,5.59906545 2.73815177,5.58903015 C2.75350863,5.57523164 2.77075884,5.56331471 2.78127722,5.54826179 C2.79789633,5.53111815 2.81157025,5.51313825 2.82987226,5.4962037 C2.89887302,5.57711326 2.99017279,5.65948625 3.11092413,5.72743355 C2.43816678,6.01197587 0.685379405,7.8739406 0.685379405,7.8739406 L0.685379405,7.8739406 L0.685379405,7.8739406 Z M13.2031255,0.75599196 C28.287994,-0.131713201 50.1953117,9.34431987 50.4086251,9.44070046 L50.4233507,9.4444637 L50.4357626,9.44780879 C52.2712248,10.1732768 54.0153868,10.8822283 55.6497372,11.5600286 C55.263922,11.4090811 53.2751015,10.6234014 53.2719458,10.6234014 C50.0690909,9.35937279 44.1815177,7.43447845 44.1308188,7.41817111 C36.4109392,4.77073577 33.0362132,4.30388565 32.7957626,4.27336162 C31.8817131,4.12534109 31.5333435,4.08582711 31.5194592,4.08540899 L30.1282945,3.92609871 C30.1282945,3.92609871 30.8912998,5.15416754 30.8961382,5.16211213 C25.446762,1.33030333 18.9230353,1.13733303 18.6026446,1.1295975 L18.5883396,1.1295975 C17.2745905,1.1295975 16.1261908,1.50111235 15.2363336,1.92677597 C15.3381518,1.740914 15.6808415,1.10388206 15.6808415,1.10388206 L14.6008114,1.0570507 C12.6696319,0.970287246 11.1766491,1.03739826 10.0964087,1.14318696 C11.8218482,0.826238998 13.1667318,0.75599196 13.2031255,0.75599196 L13.2031255,0.75599196 L13.2031255,0.75599196 Z M103.934696,29.4761599 C103.366912,28.2204941 101.802825,28.6285959 101.802825,28.6285959 C101.063171,28.7816341 100.220015,29.6235533 98.9658,29.9923502 C96.2743501,30.7849292 94.1248083,29.8633549 94.1248083,29.8633549 C89.980556,28.0833451 76.6566793,20.5025186 69.8817732,17.1908725 C69.8817732,17.1908725 62.1099322,13.3178772 50.6871524,8.82332096 C50.6871524,8.82332096 28.5894516,-0.826448069 13.1616829,0.0825820863 C13.1616829,0.0825820863 5.16390684,0.435907974 2.66220886,4.04694036 C2.66220886,4.04694036 2.23516152,4.52926155 2.47792638,5.05130579 C2.47792638,5.05130579 2.52504883,5.20120797 2.42491359,5.3007246 C2.42491359,5.3007246 1.08045078,6.49847845 0.396123207,7.56284655 C0.15567243,7.9496234 -0.111495107,8.59940853 0.381818182,9.05475987 C0.381818182,9.05475987 0.603966942,9.22640519 0.696949653,9.37651643 C0.892381653,9.69346436 1.07350863,10.1651231 1.31585273,10.4467384 C1.66401203,10.8609033 2.37084899,11.5771722 3.36546959,11.4051088 C3.7323516,11.3415519 3.81123967,11.2041939 3.81123967,11.2041939 C4.30897071,11.6959232 5.11762585,11.6806612 5.11762585,11.6806612 C5.01601802,11.3655948 4.66954169,10.7488425 4.61989481,10.3756551 C4.56667167,9.96504446 4.6867919,9.5722046 4.6867919,9.5722046 C4.82752817,9.10598169 5.10647633,8.51933527 5.41424493,8.22308509 C5.6830954,7.95714988 6.37310294,7.65337326 6.92889557,8.03492337 C7.37214126,8.34748089 7.90100678,9.36439045 7.46049587,10.8163717 C7.44072126,10.9263418 6.95540195,11.9562135 6.4353719,12.1123878 C6.4353719,12.1123878 6.38656648,12.1280679 6.286852,12.1280679 C5.93700975,12.1280679 5.28486853,11.7642886 5.28486853,11.7642886 C5.28486853,11.7642886 5.26761835,11.8564878 5.36060106,12.2326022 C5.41866264,12.448361 5.49544704,12.6825178 5.557716,12.8656618 C5.557716,12.8656618 5.430864,13.0910378 5.34882043,13.2221237 C5.2230203,13.4462453 5.11720512,13.8739995 5.38626595,14.0688515 C5.38626595,14.0688515 6.54034562,14.8490954 7.66013524,14.9172517 C8.43176559,14.9634559 8.72396694,14.4462202 8.72396694,14.4462202 C9.29090909,13.6689033 9.71984975,13.0055287 10.3181367,12.4640411 C11.9550113,10.9738003 14.2534936,10.5738521 14.2534936,10.5738521 C14.4060105,10.5541997 16.9163336,9.86030109 21.1832306,13.2520206 C19.964568,13.3492374 18.5140796,13.6379611 17.406281,13.8336493 C14.2454996,14.393744 12.2169196,17.3579182 11.6266266,18.5636167 C10.090308,21.7098897 13.230894,22.7945374 13.230894,22.7945374 C13.2603456,22.765895 16.2248535,22.534038 17.6566191,19.4015635 C17.6566191,19.4015635 18.1806461,18.0141845 19.572021,18.463891 C20.4816529,18.7570051 28.5229752,21.5503703 30.3336139,22.0234925 C30.3336139,22.0234925 35.7181967,23.4165164 37.7461458,20.9557793 C40.9872876,22.012621 44.0287904,22.5244208 51.9981669,21.5022846 C53.3811269,21.3233219 54.4689405,21.3642993 54.4689405,21.3642993 C56.3306988,21.5031208 58.0294215,22.747497 58.5446132,23.5643279 C60.6394592,26.8977172 63.2983021,33.5187098 72.5269421,32.7127505 L76.7004357,32.3366361 C79.2475732,32.1863158 81.3213825,32.0870083 83.4248536,33.1879633 C84.3407964,33.665685 84.8498873,33.8408846 86.4030354,35.3146089 C88.5292261,37.3248033 90.4867018,39.5003709 93.087483,38.3134886 C94.0107888,37.8911699 95.0485349,36.2516542 95.0485349,36.2516542 C94.9481894,35.5031888 94.6128625,34.7833656 93.7856949,34.1695402 C96.1493914,34.7277534 101.481593,35.0892331 103.545725,31.503916 C104.078798,30.668478 104.136649,29.924612 103.934696,29.4761599 L103.934696,29.4761599 L103.934696,29.4761599 Z M11.0657851,2.94995756 C11.1682344,2.95330266 11.2828851,2.95622962 11.419414,2.95852937 C11.9731029,2.96751932 12.5972652,2.74088899 13.0125319,2.5485459 C13.3085199,2.41076971 13.5001653,2.29097342 13.4751315,2.29097342 C13.0909992,2.28700112 12.4758828,2.28135626 12.2461608,2.28135626 C11.2475432,2.28135626 10.7226747,2.84375073 10.718257,2.8958088 C10.7144703,2.92800536 10.8518407,2.94138575 11.0657851,2.94995756 L11.0657851,2.94995756 L11.0657851,2.94995756 Z" id="path-1"></path>
                        </g>
                        <g id="Clip-5" transform="translate(0.000000, 43.966942)">
                            <path d="M77.3005954,0.128305785 L77.3005954,4.79524793 C77.3005954,6.0035124 77.1656744,6.95826446 76.5461296,7.75640496 C75.538634,9.05661157 73.6909283,9.80309917 68.5368126,9.80309917 L68.4832225,9.8035124 C63.3570579,9.8035124 61.5001051,9.0553719 60.4934502,7.75847107 C59.8739055,6.95950413 59.740035,6.0035124 59.740035,4.79607438 L59.740035,0.129545455 L63.2868651,0.129545455 L63.2868651,4.66322314 C63.2868651,5.87995868 63.4425921,6.59504132 63.8963223,7.22252066 C64.6633977,8.28512397 65.9878109,8.66880165 68.369317,8.66880165 L68.6704727,8.66880165 C71.1614711,8.66880165 72.3763924,8.28512397 73.1434674,7.22210744 C73.597198,6.59297521 73.753555,5.84731405 73.753555,4.66652893 L73.753555,0.128305785 L77.3005954,0.128305785 L77.3005954,0.128305785 L77.3005954,0.128305785 Z M112.576182,1.30950413 C113.905429,1.30950413 114.494711,1.43099174 114.899264,1.72871901 C115.283433,2.01157025 115.420665,2.44380165 115.420665,3.11570248 L115.420665,3.29173554 C115.420665,3.8981405 115.273555,4.39049587 114.820876,4.69917355 C114.375762,5.0018595 113.752645,5.06880165 112.619264,5.06880165 L105.588652,5.06880165 L105.588652,1.30950413 L112.576182,1.30950413 L112.576182,1.30950413 L112.576182,1.30950413 Z M114.301366,6.18615702 C115.634396,6.14256198 116.764203,5.94483471 117.634676,5.48367769 C118.537934,5.0053719 118.968336,4.10268595 118.968336,3.16652893 C118.968336,1.91508264 118.39944,1.11342975 117.363152,0.665495868 C116.442031,0.266322314 115.304238,0.129545455 113.037899,0.129545455 L102.042242,0.129545455 L102.042242,9.49483471 L105.588652,9.49483471 L105.588652,6.24876033 L110.247636,6.24876033 L115.562312,9.49483471 L119.883152,9.49483471 L114.301366,6.18615702 L114.301366,6.18615702 L114.301366,6.18615702 Z M52.2968826,8.24256198 L52.2968826,5.19359504 L55.82648,5.19359504 L55.82648,9.49318182 L45.5630122,9.49318182 C43.638599,9.49318182 42.1223117,9.27334711 40.9777934,8.82004132 C39.0710334,8.06384298 38.1990893,6.6822314 38.1990893,4.79359504 C38.1990893,3.01033058 39.1485815,1.7731405 40.3569878,1.10764463 C41.6421015,0.399586777 43.0896671,0.128305785 45.5008056,0.128305785 L55.4652188,0.128305785 L55.4652188,1.37892562 L46.605394,1.37892562 C44.7066198,1.37892562 43.6722241,1.66095041 42.883923,2.29132231 C42.1832575,2.85061983 41.8102278,3.68863636 41.8102278,4.81053719 C41.8095974,5.97024793 42.2023818,6.82665289 42.9511732,7.38801653 C43.7417864,7.97913223 44.8066549,8.24194215 46.634606,8.24194215 L52.2968826,8.24256198 L52.2968826,8.24256198 L52.2968826,8.24256198 Z M15.2103678,0.128305785 L15.2103678,4.69545455 C15.2103678,6.17293388 14.8654991,7.06880165 14.1513835,7.78739669 C12.9049387,9.04090909 10.5141857,9.49359504 7.13169878,9.49359504 L0,9.49359504 L0,8.23657025 L6.5657443,8.23657025 C8.58031524,8.23657025 9.9417163,7.9088843 10.7625919,7.11115702 C11.3842382,6.50785124 11.6637478,5.66652893 11.6637478,4.41590909 L11.6637478,0.128305785 L15.2103678,0.128305785 L15.2103678,0.128305785 L15.2103678,0.128305785 Z M93.1693871,7.49938017 L82.6612959,7.49938017 L80.9197197,9.49359504 L78.8637478,9.49359504 L87.1269352,0.128305785 L90.6229071,0.128305785 L98.8934502,9.49359504 L94.9168476,9.49359504 L93.1693871,7.49938017 L93.1693871,7.49938017 L93.1693871,7.49938017 Z M83.7177583,6.28904959 L92.1091418,6.28904959 L87.9070403,1.4927686 L83.7177583,6.28904959 L83.7177583,6.28904959 L83.7177583,6.28904959 Z M31.134641,7.49938017 L20.6265499,7.49938017 L18.8847636,9.49359504 L16.8290018,9.49359504 L25.0932399,0.128305785 L28.5875306,0.128305785 L36.858914,9.49359504 L32.8825219,9.49359504 L31.134641,7.49938017 L31.134641,7.49938017 L31.134641,7.49938017 Z M21.6836427,6.28904959 L30.0743958,6.28904959 L25.8727145,1.4927686 L21.6836427,6.28904959 L21.6836427,6.28904959 L21.6836427,6.28904959 Z" id="path-3"></path>
                        </g>
                    </g>
                </g>
            </g>
        </g>
    </g>
</svg>