<?xml version="1.0" encoding="UTF-8" standalone="no"?>
<svg width="140px" height="101px" viewBox="0 0 140 101" version="1.1" xmlns="http://www.w3.org/2000/svg" xmlns:xlink="http://www.w3.org/1999/xlink">
    <!-- Generator: Sketch 40.3 (33839) - http://www.bohemiancoding.com/sketch -->
    <title>13</title>
    <desc>Created with Sketch.</desc>
    <defs></defs>
    <g id="Page-1" stroke="none" stroke-width="1" fill="none" fill-rule="evenodd">
        <g id="Group-51">
            <rect id="Rectangle-Copy-23" x="0" y="0" width="140" height="100"></rect>
            <g id="lex" transform="translate(10.000000, 40.000000)" fill="#4C4C4C">
                <g id="Page-1">
                    <g id="lex">
                        <path d="M66.8965005,13.4696438 L52.5335554,13.4696438 C52.8570012,11.0957567 55.2548786,11.0861166 55.2548786,11.0861166 L63.7982289,11.0861166 L63.7982289,8.92913295 L52.5335554,8.92913295 C53.0783063,6.65164742 55.3618833,6.87819097 55.3618833,6.87819097 L64.8317967,6.87819097 L64.8317967,6.02021758 L71.4660863,10.5462682 L66.8965005,13.4696438 L66.8965005,13.4696438 Z M115.756292,9.01107423 L106.291243,9.01107423 C106.179374,6.65164742 108.74019,6.7456389 108.74019,6.7456389 L118.942113,6.7456389 L118.942113,4.7260274 L108.577251,4.7260274 C101.476032,5.37191747 101.719225,11.0355058 101.719225,11.0355058 L113.796161,11.0355058 C115.593353,11.0355058 115.430414,12.1658134 115.430414,12.1658134 C115.430414,13.616656 114.122039,13.4696438 114.122039,13.4696438 L100.413282,13.4696438 L100.413282,4.7260274 L96.4978833,4.7260274 L96.4978833,13.4696438 L89.3212747,13.4696438 C86.8115287,13.4600036 86.8115287,12.1658134 86.8115287,12.1658134 L86.8115287,4.7260274 L80.826563,4.7260274 L74.6227239,8.43989532 L69.0755047,4.7260274 L55.3618833,4.7260274 C48.2874154,5.15260405 47.7791433,10.3872057 47.7791433,10.3872057 L50.3034808,10.3872057 C49.1629083,10.8643931 47.7791433,13.4696438 47.7791433,13.4696438 L39.20661,13.4696438 C36.5922914,13.5395348 36.6725449,11.1897482 36.6725449,11.1897482 L36.6725449,4.7260274 L32.6720293,4.7260274 L32.6720293,10.3872057 C32.5966397,15.8845014 37.8982348,15.4000839 37.8982348,15.4000839 L67.6090543,15.4000839 L73.3192126,12.0067509 L78.1344228,15.4000839 L84.0926373,15.4000839 L76.3664137,9.57502303 L82.7015766,5.85633503 L82.7015766,12.1658134 C83.3581962,15.0699087 87.3538477,15.4000839 87.3538477,15.4000839 L116.41048,15.4000839 C120,15.4000839 120,12.1658134 120,12.1658134 C120,9.13639617 115.756292,9.01107423 115.756292,9.01107423 L115.756292,9.01107423 L115.756292,9.01107423 Z" id="Fill-1"></path>
                        <g id="Group-5">
                            <path d="M25.2316077,13.1105069 C25.0783364,13.1806895 24.7936899,13.2000502 24.7936899,13.2000502 L12.6585008,13.2000502 C12.6585008,13.2000502 10.6489447,13.0911461 12.6585008,10.755758 L18.536331,2.30963926 C18.536331,2.30963926 18.7747529,2.08699087 18.9426214,1.79657991 C19.1688789,1.40210502 19.266194,0.881785389 18.4974049,0.613155251 C17.1082323,0.291283105 15.5901173,0.114616438 13.9649556,0.114616438 C5.46448438,0.109776256 0.0270049315,4.8362146 0.000243287671,10.3540228 C-0.0265183562,15.6540228 4.74435288,20.3514201 13.9673885,20.3417397 C18.8136789,20.3417397 22.7354762,18.8291827 25.1829501,16.4671735 L22.7865666,16.4671735 C20.6796953,18.149137 17.6337337,19.1946164 13.9673885,19.1946164 C6.06053918,19.1946164 1.98790356,15.2426073 1.98790356,10.3540228 C1.98790356,5.47269863 6.68578849,1.20123744 13.9673885,1.19397717 C14.2812296,1.18913699 14.5780405,1.20849772 14.8699858,1.22059817 C15.0694816,1.34402283 15.0743474,1.69493607 14.213109,2.64119178 C14.213109,2.64119178 12.4954981,4.73457078 10.208594,7.87342923 C7.88276384,11.0873105 7.59811726,11.7915571 7.59811726,11.7915571 C7.59811726,11.7915571 5.09712,15.5209178 11.0284734,15.7145251 L25.895783,15.7145251 C27.2071036,14.1656667 27.9442652,12.3312374 27.9442652,10.3540228 C27.9442652,6.3463516 25.0832022,2.77913698 20.2369118,1.11653425 L19.7016789,2.02406849 C24.0881556,3.50516439 26.1050104,6.76260732 26.1050104,10.3491826 C26.1050104,11.2204155 25.995531,11.9149817 25.5551803,12.6192283 C25.5551803,12.6192283 25.3873118,13.0403242 25.2316077,13.1105069" id="Fill-3"></path>
                        </g>
                    </g>
                </g>
            </g>
        </g>
    </g>
</svg>