<?xml version="1.0" encoding="UTF-8" standalone="no"?>
<svg width="140px" height="101px" viewBox="0 0 140 101" version="1.1" xmlns="http://www.w3.org/2000/svg" xmlns:xlink="http://www.w3.org/1999/xlink">
    <!-- Generator: Sketch 40.3 (33839) - http://www.bohemiancoding.com/sketch -->
    <title>11</title>
    <desc>Created with Sketch.</desc>
    <defs></defs>
    <g id="Page-1" stroke="none" stroke-width="1" fill="none" fill-rule="evenodd">
        <g id="Group-54">
            <rect id="Rectangle-Copy-25" x="0" y="0" width="140" height="100"></rect>
            <g id="mrs" transform="translate(10.000000, 43.000000)" fill="#4C4C4C">
                <g id="Page-1">
                    <g id="mrs">
                        <path d="M112.639914,13.1315939 L119.337971,13.1315939 L119.84406,10.342545 L119.435178,10.342545 C119.24056,10.9237241 119.065383,11.2919738 118.831677,11.6986974 C118.344825,12.4537213 117.994267,12.6281768 116.981884,12.6281768 L114.703971,12.6281768 L120,3.98988097 L113.535648,3.98988097 L113.087679,6.50778084 L113.496561,6.50778084 C114.178032,4.7646507 114.489707,4.49350165 115.755237,4.49350165 L117.916296,4.49350165 L112.639914,13.1315939 L112.639914,13.1315939 Z M101.911153,4.57106005 L102.164504,4.57106005 C103.21577,4.5901952 103.29374,4.6677536 103.29374,5.77189208 L103.29374,11.7567135 C103.29374,12.5892958 103.099122,12.7444126 101.891916,12.8024288 L101.891916,13.1900172 C102.865212,13.0931201 103.352064,13.0735778 104.014503,13.0735778 C104.656681,13.0735778 105.163179,13.0931201 106.117238,13.1900172 L106.117238,12.8024288 C105.104855,12.7637513 104.851299,12.5701607 104.851299,11.795391 L104.851299,7.12763735 C104.851299,6.31419018 104.948915,5.88792434 105.221504,5.52008174 C105.591298,4.99691877 106.195208,4.68729586 106.876679,4.68729586 C107.499416,4.68729586 108.00571,4.91976752 108.297944,5.36516851 C108.531445,5.73321466 108.609415,6.15907339 108.609415,7.05007896 L108.609415,11.795391 C108.609415,12.5701607 108.356268,12.7637513 107.324239,12.8024288 L107.324239,13.1900172 C108.278502,13.0931201 108.784796,13.0735778 109.427179,13.0735778 C110.10865,13.0735778 110.595502,13.0931201 111.569207,13.1900172 L111.569207,12.8024288 C110.381238,12.7444126 110.166974,12.5892958 110.166974,11.7567135 L110.166974,7.10809509 C110.166974,6.19795437 110.03068,5.53921687 109.738855,5.07447717 C109.252003,4.28036873 108.356268,3.81562903 107.324239,3.81562903 C106.195208,3.81562903 105.416122,4.28036873 104.695973,5.32649109 C104.656681,4.60973747 104.578711,3.97074582 104.481709,3.6411735 C103.838916,3.89318742 103.001915,4.06743937 101.911153,4.2223526 L101.911153,4.57106005 L101.911153,4.57106005 Z M94.7849769,7.65039319 C94.9795952,5.42318464 95.7003575,4.299911 96.9656826,4.299911 C98.2119756,4.299911 98.8738001,5.38450722 98.9714161,7.65039319 L94.7849769,7.65039319 L94.7849769,7.65039319 Z M99.7891807,10.1489544 C99.5552706,11.795391 98.6791818,12.6861929 97.3162407,12.6861929 C96.264566,12.6861929 95.5247716,12.1634371 95.1158893,11.1173147 C94.8823885,10.4976618 94.7849769,9.80065403 94.7460944,8.3478081 L100.528975,8.3478081 C100.470651,5.44252335 99.1852711,3.79629032 96.9853286,3.79629032 C94.707007,3.79629032 93.168889,5.71387595 93.168889,8.54139876 C93.168889,11.4855645 94.6873609,13.3255917 97.0823307,13.3255917 C99.0297402,13.3255917 100.314711,12.1438948 100.548212,10.1489544 L99.7891807,10.1489544 L99.7891807,10.1489544 Z M85.107891,6.68223636 L86.9576843,6.68223636 C87.9700672,6.68223636 88.5932135,6.87582702 89.0217419,7.32122801 C89.4693024,7.78596771 89.7224492,8.59941486 89.7224492,9.50996269 C89.7224492,11.4466835 88.7491537,12.5312797 87.0160084,12.5312797 L86.2958598,12.5312797 C85.2832725,12.5312797 85.107891,12.3765701 85.107891,11.5435806 L85.107891,6.68223636 L85.107891,6.68223636 Z M85.107891,6.081515 L85.107891,0.81344716 L86.7630663,0.81344716 C88.3985955,0.81344716 89.0993026,1.60755561 89.0993026,3.40890543 C89.0993026,4.299911 88.8854478,4.97778365 88.4569194,5.44252335 C88.0283911,5.92680532 87.5028607,6.081515 86.4321539,6.081515 L85.107891,6.081515 L85.107891,6.081515 Z M81.8759198,0.213132927 L81.8759198,0.677872633 C83.277539,0.774973309 83.4723617,0.929682977 83.4723617,1.97560177 L83.4723617,11.3691251 C83.4723617,12.4150439 83.3164215,12.5506184 81.8759198,12.6668542 L81.8759198,13.1315939 L86.7825077,13.1315939 C88.2426554,13.1315939 89.06042,12.957342 89.8395065,12.4537213 C90.8322434,11.8338648 91.4553898,10.652575 91.4553898,9.4324043 C91.4553898,7.74749385 90.4622436,6.58533926 88.7098616,6.23663179 C90.1120948,5.69433369 90.8322434,4.72576973 90.8322434,3.37002445 C90.8322434,2.38232535 90.4039197,1.49131979 89.6835664,0.910547833 C89.0217419,0.406723579 88.2623014,0.213132927 86.9963624,0.213132927 L81.8759198,0.213132927 L81.8759198,0.213132927 Z M76.2485697,8.38628194 L81.2527735,8.38628194 L81.2527735,7.51481866 L76.2485697,7.51481866 L76.2485697,8.38628194 L76.2485697,8.38628194 Z M68.9860995,13.3642691 L69.3170116,13.3642691 L69.7842181,12.5121446 C70.5240125,13.0540355 71.2638072,13.3060495 72.1401004,13.3060495 C73.9510112,13.3060495 75.2556281,12.1438948 75.2556281,10.5170005 C75.2556281,9.39393046 74.7296884,8.75453168 73.2695407,8.11513289 C71.9065996,7.51481866 71.7506595,7.45680253 71.4780713,7.32122801 C70.6799527,6.91450444 70.3877184,6.56579697 70.3877184,5.94594047 C70.3877184,5.05534204 71.1860417,4.35792713 72.217866,4.35792713 C73.4254808,4.35792713 74.0873053,5.09401946 74.2624822,6.64335536 L74.6908057,6.64335536 L74.6908057,3.6411735 L74.3598935,3.6411735 L74.0289812,4.43548552 C73.3475106,3.98988097 72.7826884,3.81562903 72.0428937,3.81562903 C70.3097485,3.81562903 69.1223936,4.88088652 69.1223936,6.3917486 C69.1223936,7.51481866 69.5699538,8.07665903 70.991219,8.71605781 C72.1988339,9.27728751 72.8410123,9.56797882 72.8606584,9.58752111 C73.658777,9.99424469 73.9510112,10.381426 73.9510112,10.9817402 C73.9510112,11.9698465 73.0749224,12.7248704 71.9452778,12.7248704 C71.0305111,12.7248704 70.2317786,12.2409955 69.842542,11.4855645 C69.647924,11.0788409 69.5312759,10.7496757 69.4140139,10.1298192 L68.9860995,10.1298192 L68.9860995,13.3642691 L68.9860995,13.3642691 Z M61.4311904,7.65039319 C61.6260131,5.42318464 62.3461618,4.299911 63.6121008,4.299911 C64.8579842,4.299911 65.5198087,5.38450722 65.617425,7.65039319 L61.4311904,7.65039319 L61.4311904,7.65039319 Z M66.4351896,10.1489544 C66.2016885,11.795391 65.3251907,12.6861929 63.9622497,12.6861929 C62.9109842,12.6861929 62.1711895,12.1634371 61.7623072,11.1173147 C61.5283971,10.4976618 61.4311904,9.80065403 61.392103,8.3478081 L67.174984,8.3478081 C67.1166601,5.44252335 65.8314844,3.79629032 63.6311329,3.79629032 C61.3534249,3.79629032 59.8148979,5.71387595 59.8148979,8.54139876 C59.8148979,11.4855645 61.3337791,13.3255917 63.7287489,13.3255917 C65.6757489,13.3255917 66.96072,12.1438948 67.1946301,10.1489544 L66.4351896,10.1489544 L66.4351896,10.1489544 Z M53.5648104,4.41614681 C55.0057217,4.41614681 55.7455161,5.88792434 55.7455161,8.77407394 C55.7455161,11.4275484 55.0253674,12.8217675 53.6427806,12.8217675 C52.2215154,12.8217675 51.4815163,11.34999 51.4815163,8.59941486 C51.4815163,5.81036595 52.1822236,4.41614681 53.5648104,4.41614681 L53.5648104,4.41614681 L53.5648104,4.41614681 Z M58.7053083,12.4926023 C57.4006914,12.4537213 57.2836341,12.337689 57.2836341,11.1755344 L57.2836341,0 C56.4269866,0.232675201 55.2396317,0.445808127 54.3438972,0.503824254 L54.3438972,0.852531709 C55.5705439,0.852531709 55.7260747,0.988106236 55.7260747,1.97560177 L55.7260747,5.38450722 C55.0057217,4.2223526 54.4408992,3.87364516 53.3898384,3.87364516 C51.3061348,3.87364516 49.845987,5.82990821 49.845987,8.61895715 C49.845987,11.4080061 51.3452222,13.3642691 53.4676037,13.3642691 C54.5577519,13.3642691 55.3171924,12.8604449 55.8818102,11.7758487 C55.9401344,12.4926023 55.9597804,12.6088381 56.134957,13.3255917 C56.9334849,13.0735778 57.3423672,12.9960194 58.7053083,12.8217675 L58.7053083,12.4926023 L58.7053083,12.4926023 Z M42.5442248,7.65039319 C42.7390477,5.42318464 43.4591961,4.299911 44.7251351,4.299911 C45.9710188,4.299911 46.6332526,5.38450722 46.7304593,7.65039319 L42.5442248,7.65039319 L42.5442248,7.65039319 Z M47.5482239,10.1489544 C47.3147232,11.795391 46.4386343,12.6861929 45.0756933,12.6861929 C44.0240186,12.6861929 43.2842241,12.1634371 42.8753418,11.1173147 C42.6414315,10.4976618 42.5442248,9.80065403 42.5051374,8.3478081 L48.2884277,8.3478081 C48.2296945,5.44252335 46.9445187,3.79629032 44.7441672,3.79629032 C42.4664595,3.79629032 40.9283415,5.71387595 40.9283415,8.54139876 C40.9283415,11.4855645 42.4468135,13.3255917 44.8417832,13.3255917 C46.7891928,13.3255917 48.0741636,12.1438948 48.3076644,10.1489544 L47.5482239,10.1489544 L47.5482239,10.1489544 Z M39.1565181,3.58315737 L38.80596,3.58315737 L38.2994617,4.57106005 C37.6763151,3.98988097 37.1311387,3.7576129 36.313374,3.7576129 C34.0354616,3.7576129 32.4582565,5.73321466 32.4582565,8.63849942 C32.4582565,11.4466835 33.9771377,13.3447269 36.2550501,13.3447269 C38.0074321,13.3447269 39.1172264,12.2214532 39.3511364,10.1489544 L38.5720499,10.1489544 C38.3387535,11.8534071 37.6179912,12.7057352 36.4109903,12.7057352 C34.9117551,12.7057352 34.1523143,11.3304477 34.1523143,8.61895715 C34.1523143,5.86878919 34.9895204,4.28036873 36.4693142,4.28036873 C37.2091089,4.28036873 37.8905794,4.70663457 38.2607836,5.40364235 C38.4750476,5.79123079 38.5720499,6.10105726 38.7279898,6.77892988 L39.1565181,6.77892988 L39.1565181,3.58315737 L39.1565181,3.58315737 Z M24.8648741,4.47416294 C26.2278151,4.49350165 26.2470518,4.53217907 26.2470518,5.73321466 L26.2470518,11.7567135 C26.2470518,12.5892958 26.0327877,12.7444126 24.8452281,12.8024288 L24.8452281,13.1900172 C25.8576109,13.0931201 26.3641092,13.0735778 27.0259337,13.0735778 C27.6683169,13.0735778 28.1748153,13.0931201 29.206844,13.1900172 L29.206844,12.8024288 C28.0188752,12.7444126 27.804611,12.5892958 27.804611,11.7567135 L27.804611,7.70840932 C27.804611,5.79123079 28.4474035,4.57106005 29.4794322,4.57106005 C29.8103446,4.57106005 30.0632868,4.7646507 30.0632868,5.03579975 C30.0632868,5.09401946 30.0632868,5.15203556 30.0436407,5.21005169 C29.9662847,5.52008174 29.9662847,5.52008174 29.9662847,5.61677529 C29.9662847,5.985025 30.3166382,6.25617405 30.7644033,6.25617405 C31.2704923,6.25617405 31.582168,5.88792434 31.582168,5.32649109 C31.582168,4.41614681 30.8810514,3.7576129 29.8883145,3.7576129 C28.8757272,3.7576129 28.0579626,4.39660455 27.6099929,5.52008174 C27.5907562,4.74531199 27.5516688,4.43548552 27.434816,3.68005451 C26.7339042,3.89318742 25.8964936,4.04789708 24.8648741,4.14479421 L24.8648741,4.47416294 L24.8648741,4.47416294 Z M17.7577301,7.65039319 C17.9525529,5.42318464 18.6727015,4.299911 19.9386404,4.299911 C21.1843194,4.299911 21.8467578,5.38450722 21.9437599,7.65039319 L17.7577301,7.65039319 L17.7577301,7.65039319 Z M22.7617292,10.1489544 C22.5282283,11.795391 21.6521397,12.6861929 20.288994,12.6861929 C19.2375239,12.6861929 18.4977293,12.1634371 18.088847,11.1173147 C17.8549368,10.4976618 17.7577301,9.80065403 17.7186427,8.3478081 L23.501933,8.3478081 C23.4431997,5.44252335 22.1580241,3.79629032 19.9576724,3.79629032 C17.67976,3.79629032 16.1414375,5.71387595 16.1414375,8.54139876 C16.1414375,11.4855645 17.6603187,13.3255917 20.0552885,13.3255917 C22.0022886,13.3255917 23.2876689,12.1438948 23.5209651,10.1489544 L22.7617292,10.1489544 L22.7617292,10.1489544 Z M2.66755801,1.35574527 L5.84161439,9.95516013 C6.01658653,10.4394421 6.19217265,10.9237241 6.36714479,11.3884638 L6.83435117,12.7637513 L7.12658536,12.7637513 C7.59379172,11.4275484 7.61343773,11.3884638 7.78840989,10.9237241 C7.96399598,10.4394421 8.04155674,10.2263092 8.09988081,10.0327185 L11.3322612,1.39482981 L11.4882013,11.4275484 L11.4882013,11.5240383 C11.4882013,12.4345862 11.1959671,12.6477191 9.87170414,12.7248704 L9.87170414,13.1900172 C11.059673,13.0931201 11.6048494,13.0540355 12.324998,13.0540355 C13.0066732,13.0540355 13.5712909,13.0931201 14.7592598,13.1900172 L14.7592598,12.7248704 C13.3766728,12.6477191 13.1433766,12.4537213 13.1433766,11.4466835 L12.9481445,1.91758565 L12.9291124,1.76246885 C12.870379,0.96856396 13.2403787,0.716957181 14.5449956,0.619856506 L14.5449956,0.155116801 C13.8244378,0.213132927 13.4933209,0.232675201 13.0066732,0.232675201 C12.4612921,0.232675201 11.9940857,0.213132927 11.1376431,0.135574527 L7.47714362,9.93622856 L3.85552689,0.135574527 C3.11573232,0.213132927 2.68720401,0.232675201 2.00573349,0.232675201 C1.47999843,0.232675201 1.14867688,0.213132927 0.408882309,0.155116801 L0.408882309,0.639398781 C0.973704721,0.658533926 1.26573428,0.716957181 1.53832248,0.832989433 C1.88888074,0.96856396 2.06405755,1.31727141 2.02517484,1.8015534 L2.00573349,1.91758565 L1.61629253,11.4466835 C1.55796848,12.4732636 1.36294103,12.6281768 0,12.7248704 L0,13.1900172 C0.973704721,13.1124588 1.42126508,13.0931201 1.9664415,13.0931201 C2.51202721,13.0931201 2.94014623,13.1124588 3.87455894,13.1900172 L3.87455894,12.7248704 C2.53126391,12.6281768 2.2783217,12.4537213 2.2783217,11.6015967 L2.2783217,11.4466835 L2.66755801,1.35574527 L2.66755801,1.35574527 Z" id="Fill-1"></path>
                    </g>
                </g>
            </g>
        </g>
    </g>
</svg>