<?xml version="1.0" encoding="UTF-8" standalone="no"?>
<svg width="140px" height="101px" viewBox="0 0 140 101" version="1.1" xmlns="http://www.w3.org/2000/svg" xmlns:xlink="http://www.w3.org/1999/xlink">
    <!-- Generator: Sketch 40.3 (33839) - http://www.bohemiancoding.com/sketch -->
    <title>12</title>
    <desc>Created with Sketch.</desc>
    <defs></defs>
    <g id="Page-1" stroke="none" stroke-width="1" fill="none" fill-rule="evenodd">
        <g id="Group-61">
            <rect id="Rectangle-Copy-27" x="0" y="0" width="140" height="100"></rect>
            <g id="Pantene" transform="translate(10.000000, 0.000000)" fill="#4C4C4C">
                <g id="Page-1">
                    <g id="Pantene">
                        <path d="M41.1044506,40.9411765 C38.4808962,22.808673 85.896492,21.7111345 81.9849875,0 C88.5678434,9.23323736 80.2353791,16.5629963 71.5382813,20.6137392 C58.0148058,26.9123818 38.9817656,30.6343069 41.1044506,40.9411765" id="Fill-1"></path>
                        <path d="M46.0081493,49.4117647 C40.1228481,32.8181818 90.5280106,31.888369 86.1139991,11.6470588 C93.3757599,20.802139 83.0526688,27.8830214 75.7197141,30.7439839 C57.2016551,37.9687726 43.8961161,39.1122995 46.0081493,49.4117647" id="Fill-2"></path>
                        <path d="M64.2037698,43.3112647 C73.9833011,41.7916765 82.7997522,37.1222358 79.358232,30.3529412 C78.7183595,42.0180071 47.364594,41.1644658 47.6489816,49.4864947 C47.8622728,54.5366146 56.4234858,57.2403494 56.4650065,58.2352941 C56.2517156,56.1725689 47.7911756,53.8964587 47.9333696,49.4864947 C48.1544813,46.1679254 58.524828,44.3073476 64.2037698,43.3112647" id="Fill-3"></path>
                        <g id="Group-7" transform="translate(42.000000, 32.823529)">
                            <path d="M6.78571429,0.0963494467 C4.5,1.80164939 -4.42857141,8.90706582 2.78571428,14.7335073 C-2.14285714,7.20176587 6.78571429,0.0963494467 6.78571429,0.0963494467" id="Fill-4"></path>
                            <path d="M22.7857143,30.9338567 C22.4285714,31.7865067 30,36.4050275 28.5714286,39.247194 C26.5,43.9367689 5.75685713,35.4398276 3.99999999,43.0130647 C3.85714285,42.5156855 3.50014286,37.1772441 10.4285714,37.3287314 C16.9285714,37.47084 28.8571429,41.6630354 29.7857143,39.1050858 C30.7142857,36.5471358 22.7142857,31.4312359 22.7857143,30.9338567" id="Fill-6"></path>
                        </g>
                        <path d="M7.66242304,58.5015229 L3.91686692,58.5015229 L3.91686692,49.6274255 L7.66242304,49.6274255 C11.7247317,49.6274255 12.5617403,51.8706611 12.5687825,53.8807327 C12.5772618,56.2740226 11.1179579,58.5015229 7.66242304,58.5015229 L7.66242304,58.5015229 L7.66242304,58.5015229 Z M8.42742935,48 L0.0127908254,48 C0.0127908254,48 0.682656413,49.0151919 0.682656413,50.4098831 L0.682656413,64.4461969 C0.682656413,65.5905586 0,66.7058824 0,66.7058824 L4.62596728,66.7058824 C4.62596728,66.7058824 3.89027926,65.5324821 3.89027926,64.4620747 L3.89027926,59.9721709 L8.86389829,59.9721709 C11.5664991,59.9717418 16.2352941,58.0027242 16.2352941,53.90691 C16.2352941,50.7301613 13.3337888,48 8.42742935,48 L8.42742935,48 L8.42742935,48 Z" id="Fill-8"></path>
                        <path d="M79.0664036,6.35294118 C83.8435158,7.63836116 87.4919266,15.395014 73.0588235,24.7058824 C87.3177791,14.2082856 79.0664036,6.35294118 79.0664036,6.35294118" id="Fill-9"></path>
                        <path d="M21.1054479,60.4844156 L23.871476,53.8087673 L26.9669257,60.506268 L21.1054479,60.4844156 L21.1054479,60.4844156 L21.1054479,60.4844156 Z M31.9942114,63.9094369 L26.0009364,50.4705882 L21.9176501,50.4705882 C22.9714567,51.3214158 22.3787262,52.3466375 22.3787262,52.3466375 L17.5099398,63.3858286 C17.5099398,63.3858286 16.7150156,65.5019718 15.5294118,66.3529412 L19.1297748,66.3529412 C19.1297748,66.3529412 18.9321504,65.7856281 19.7225053,63.8658738 L20.425043,62.1859288 L27.7354335,62.1859288 C27.7354335,62.1859288 28.5696256,64.0405518 28.5914728,64.1276778 C28.6134628,64.2148038 29.0525489,64.9130898 29.0525489,66.3529412 L33.8823529,66.3529412 C33.8823529,66.3529412 32.5429619,65.1093364 31.9942114,63.9094369 L31.9942114,63.9094369 L31.9942114,63.9094369 Z" id="Fill-10"></path>
                        <path d="M35.6470588,50.4705882 C35.6470588,50.4705882 36.6252282,51.2753146 36.6252282,52.9505654 C36.6252282,54.6258166 36.6034567,63.7411412 36.6034567,63.7411412 C36.6034567,63.7411412 36.7339451,65.1986199 36.0166115,66.3515841 L39.1682707,66.3515841 C39.1682707,66.3515841 38.4944806,65.3944595 38.4944806,63.7411412 L38.4944806,54.0818802 C38.4944806,54.0818802 42.2981587,59.0204679 45.5583935,62.8928322 C48.0689199,65.4053552 48.8187699,66.394884 50.4705882,66.3515841 L50.4705882,56.2358351 C50.4705882,56.2358351 48.6229662,54.7780736 48.6229662,54.6040253 L48.6445966,61.8485421 C48.6445966,61.8485421 43.7758038,55.9091051 42.2327022,54.1686212 C40.6894595,52.4282788 39.2984767,50.5573295 38.2551335,50.4920968 L35.6470588,50.4705882" id="Fill-11"></path>
                        <path d="M87.5294118,50.4927731 C87.5294118,50.4927731 88.5254019,51.2963753 88.5254019,52.9692865 C88.5254019,54.6421973 88.5033745,63.7447895 88.5033745,63.7447895 C88.5033745,63.7447895 88.6362593,65.2002321 87.9057515,66.3515862 L91.1152927,66.3515862 C91.1152927,66.3515862 90.4291278,65.3957982 90.4291278,63.7447895 L90.4291278,54.0990208 C90.4291278,54.0990208 94.3026625,59.0307099 97.6229174,62.8976654 C100.179407,65.4066787 100.942884,66.3948254 102.625039,66.3515862 L102.625039,52.0769446 C102.625039,52.0769446 102.829766,50.8186228 103.058824,50.4705882 C102.846035,50.4705882 100.40429,50.4728492 100.199995,50.4759579 C100.647456,51.0971351 100.743629,52.3403372 100.743629,52.2751955 L100.7658,61.8548336 C100.7658,61.8548336 95.8074455,55.9236935 94.2360042,54.1856407 C92.6644186,52.4477291 91.2478899,50.5793933 90.1853852,50.5142516 L87.5294118,50.4927731" id="Fill-12"></path>
                        <path d="M65.6489442,52.1846704 C66.4703626,52.20921 67.0677187,52.3561638 67.7647059,52.7970251 L67.7647059,50.4705882 L54,50.4705882 C54,50.4705882 54.0249438,52.8214228 54,52.7724854 C54.6721874,52.3073682 55.6677808,52.1792802 56.1407054,52.1792802 L59.2121209,52.1792802 L59.2121209,64.1121801 C59.2121209,65.246958 58.5272453,66.3529412 58.5272453,66.3529412 L63.168252,66.3529412 C63.168252,66.3529412 62.4303166,65.1893682 62.4303166,64.1280671 L62.4303166,52.1792802 C62.4303166,52.1792802 64.8275259,52.1602726 65.6489442,52.1846704" id="Fill-13"></path>
                        <path d="M83.6470588,64.039884 C83.081646,64.3322795 81.9754528,64.6243927 81.3364264,64.6243927 C80.6974002,64.6243927 75.0501053,64.648806 75.0501053,64.648806 L75.0439828,59.1504445 C75.0439828,59.1504445 78.9013493,59.1333692 79.9713766,59.1504445 C81.0415461,59.1676606 81.9509626,59.0457353 82.5901309,59.4112295 C82.5901309,59.4112295 82.6146215,57.7790644 82.6146215,57.16986 C82.3933542,57.3891565 81.2381806,57.4804595 81.2381806,57.4804595 L79.9713766,57.4804595 L75.0763045,57.4804595 L75.0763045,52.1666795 L81.4839378,52.1666795 C82.0738412,52.1666795 83.2291574,52.5413467 83.5486705,52.8093289 L83.5733033,50.4705882 L71.30679,50.4882279 C71.30679,50.4882279 71.9704489,51.4895979 71.9704489,52.8654935 L71.9704489,64.1238491 C71.9704489,65.2527889 71.2941176,66.3529412 71.2941176,66.3529412 L83.6470588,66.3529412 L83.6470588,64.039884" id="Fill-14"></path>
                        <path d="M120,64.039884 C119.434587,64.3322795 118.328394,64.6243927 117.689368,64.6243927 C117.050341,64.6243927 111.403046,64.648806 111.403046,64.648806 L111.396924,59.1504445 C111.396924,59.1504445 115.254148,59.1333692 116.324318,59.1504445 C117.394487,59.1676606 118.303904,59.0457353 118.943072,59.4112295 C118.943072,59.4112295 118.967563,57.7790644 118.967563,57.16986 C118.746295,57.3891565 117.591122,57.4804595 117.591122,57.4804595 L116.324318,57.4804595 L111.429246,57.4804595 L111.429246,52.1666795 L117.836879,52.1666795 C118.426782,52.1666795 119.582099,52.5413467 119.901612,52.8093289 L119.926244,50.4705882 L107.659731,50.4882279 C107.659731,50.4882279 108.32339,51.4895979 108.32339,52.8654935 L108.32339,64.1238491 C108.32339,65.2527889 107.647059,66.3529412 107.647059,66.3529412 L120,66.3529412 L120,64.039884" id="Fill-15"></path>
                        <path d="M97.9412474,76.0588938 C96.2791994,76.0588938 94.9319033,74.8736351 94.9319033,73.4117647 C94.9319033,71.9498944 96.2791994,70.7646356 97.9412474,70.7646356 C99.6031535,70.7646356 100.95045,71.9498944 100.95045,73.4117647 C100.95045,74.8736351 99.6031535,76.0588938 97.9412474,76.0588938 L97.9412474,76.0588938 L97.9412474,76.0588938 Z M97.9412474,70.2352941 C95.69958,70.2352941 93.8823529,71.6575482 93.8823529,73.4117647 C93.8823529,75.1659812 95.69958,76.5882353 97.9412474,76.5882353 C100.182773,76.5882353 102,75.1659812 102,73.4117647 C102,71.6575482 100.182773,70.2352941 97.9412474,70.2352941 L97.9412474,70.2352941 L97.9412474,70.2352941 Z" id="Fill-16"></path>
                        <path d="M83.1922398,72.2770306 C83.1922398,73.2450716 82.2260216,73.7405005 81.712488,73.7405005 L79.4194888,73.7405005 L79.4194888,70.8378311 L81.290652,70.8378311 C83.2431826,70.8530905 83.1922398,72.2770306 83.1922398,72.2770306 L83.1922398,72.2770306 L83.1922398,72.2770306 Z M81.8191853,70.2444498 L81.8191853,70.2352941 L78.3529412,70.2352941 L78.3529412,76.5882353 L79.4194888,76.5882353 L79.4194888,74.2881025 L81.712488,74.2881025 C81.712488,74.2881025 84.3527488,74.3947747 84.3527488,72.2831344 C84.3742581,70.6909027 82.5863015,70.296042 81.8191853,70.2444498 L81.8191853,70.2444498 L81.8191853,70.2444498 Z" id="Fill-17"></path>
                        <path d="M86.8375616,73.5951706 L86.8375616,70.8378311 L88.7197924,70.8378311 C90.9047912,70.8561424 91.0596625,71.9863712 91.0596625,71.9863712 C91.0827226,73.1450848 89.660694,73.5951706 89.1441233,73.5951706 L86.8375616,73.5951706 L86.8375616,73.5951706 L86.8375616,73.5951706 Z M92.4705882,76.5603321 L90.0122866,74.0006404 C90.9161788,73.8351099 92.1858978,73.3610446 92.1858978,72.0006138 C92.1503114,70.8743086 90.7446526,70.1839927 89.2514516,70.2444498 L89.2514516,70.2352941 L85.7647059,70.2352941 L85.7647059,76.5882353 L86.8375616,76.5882353 L86.8835393,74.0715614 L88.7595067,74.0866758 L91.0827226,76.5603321 L92.4705882,76.5603321 L92.4705882,76.5603321 L92.4705882,76.5603321 Z" id="Fill-18"></path>
                        <polyline id="Fill-19" points="107.505753 70.2352941 106.235294 70.2352941 109.703738 76.5882353 110.545922 76.5882353 114 70.2354388 113.0436 70.2354388 110.331713 75.4715492 107.505753 70.2352941"></polyline>
                        <path d="M105.882353,73.0588235 C105.137048,73.2899396 103.38834,72.7636295 103.058824,73.7647059 C104.148071,73.6621299 105.523984,74.0598999 105.882353,73.0588235" id="Fill-20"></path>
                    </g>
                </g>
            </g>
        </g>
    </g>
</svg>