<svg xmlns="http://www.w3.org/2000/svg" id="文字" viewBox="-100 -100 1200 1162"><style id="style2">.st0{fill:#FFFFFF))}.st1{fill:#e50012}</style><rect width="200%" height="200%" x="-50%" y="-50%" fill="#FFF"/><g id="g906" transform="scale(17.2117)"><g transform="translate(-.9 -4.2)" id="g36" fill="#231916"><path class="st0" id="polygon4" d="M8.6 42.3L8.6 36.6 10.2 36.6 11.5 39 12.8 36.6 14.5 36.6 14.5 42.3 13.2 42.3 13.2 38.3 11.5 41.2 9.8 38.3 9.8 42.3z"/><path class="st0" id="rect6" d="M15.6 36.6H16.9V42.300000000000004H15.6z"/><path class="st0" id="polygon8" d="M18.9 42.3L18.9 37.8 17.4 37.8 17.4 36.6 21.8 36.6 21.8 37.8 20.2 37.8 20.2 42.3z"/><path class="st0" d="M22.2 42.2V41c.3 0 .9.2 1.7.2.7 0 1-.1 1-.4 0-.4-.3-.5-1.2-.9-.9-.4-1.6-.8-1.6-1.7 0-1.2.7-1.6 2.1-1.6.7 0 1.3.1 1.6.1v1.2c-.3 0-.9-.1-1.5-.1-.8 0-.9.1-.9.4 0 .3.4.5 1 .8.9.4 1.7.8 1.7 1.8 0 1.1-.7 1.7-2.2 1.7-.6-.1-1.1-.2-1.7-.3" id="path10"/><path class="st0" d="M26.9 40.4v-3.7h1.3v3.7c0 .6.4.9 1 .9s1-.2 1-.9v-3.7h1.3v3.7c0 1.4-.9 2-2.3 2s-2.3-.6-2.3-2" id="path12"/><path class="st0" d="M32.5 36.6H35c1.2 0 1.8.4 1.8 1.5 0 .8-.5 1.1-.9 1.2.5.2 1 .4 1 1.4 0 1-.6 1.6-1.8 1.6h-2.6zm2.3 2.3c.5 0 .7-.3.7-.6 0-.5-.2-.6-.7-.6h-1v1.2zm.1 2.3c.5 0 .7-.2.7-.7 0-.4-.2-.6-.7-.6h-1.2v1.3z" id="path14"/><path class="st0" id="rect16" d="M37.7 36.6H39V42.300000000000004H37.7z"/><path class="st0" d="M39.9 42.2V41c.3 0 .9.2 1.7.2.7 0 1-.1 1-.4 0-.4-.3-.5-1.2-.9-.9-.4-1.6-.8-1.6-1.7 0-1.2.7-1.6 2.1-1.6.7 0 1.3.1 1.6.1v1.2c-.3 0-.9-.1-1.5-.1-.8 0-.9.1-.9.4 0 .3.4.5 1 .8.9.4 1.7.8 1.7 1.8 0 1.1-.7 1.7-2.2 1.7-.7-.1-1.2-.2-1.7-.3" id="path18"/><path class="st0" id="polygon20" d="M44.4 36.6L45.7 36.6 45.7 38.9 47.7 38.9 47.7 36.6 49 36.6 49 42.3 47.7 42.3 47.7 40.1 45.7 40.1 45.7 42.3 44.4 42.3z"/><path class="st0" id="rect22" d="M50 36.6H51.3V42.300000000000004H50z"/><path class="st0" id="polygon24" d="M14.5 49.9L14.5 44.3 16.1 44.3 17.5 46.6 18.8 44.3 20.5 44.3 20.5 49.9 19.2 49.9 19.2 45.9 17.5 48.8 15.8 45.9 15.8 49.9z"/><path class="st0" d="M21.3 47.1c0-2 .8-2.9 2.4-2.9 1.7 0 2.4.9 2.4 2.9s-.8 2.9-2.4 2.9c-1.6 0-2.4-.9-2.4-2.9m3.6 0c0-1.2-.2-1.7-1.1-1.7-.9 0-1.1.6-1.1 1.7 0 1.2.2 1.8 1.1 1.8.9-.1 1.1-.6 1.1-1.8" id="path26"/><path class="st0" id="polygon28" d="M28 49.9L28 45.4 26.4 45.4 26.4 44.3 30.8 44.3 30.8 45.4 29.2 45.4 29.2 49.9z"/><path class="st0" d="M31 47.1c0-2 .8-2.9 2.4-2.9 1.7 0 2.4.9 2.4 2.9S35 50 33.4 50c-1.7 0-2.4-.9-2.4-2.9m3.5 0c0-1.2-.2-1.7-1.1-1.7-.9 0-1.1.6-1.1 1.7 0 1.2.2 1.8 1.1 1.8.9-.1 1.1-.6 1.1-1.8" id="path30"/><path class="st0" d="M36.7 44.3H39c1.2 0 2 .5 2 1.8 0 .9-.4 1.4-1.2 1.6l1.4 2.2h-1.5l-1.2-2H38v2h-1.3zm2.2 2.5c.6 0 .7-.3.7-.7 0-.4-.2-.7-.7-.7H38v1.4z" id="path32"/><path class="st0" d="M41.8 49.9v-1.2c.3 0 .9.2 1.7.2.7 0 1-.1 1-.4 0-.4-.3-.5-1.2-.9-.9-.4-1.6-.8-1.6-1.7 0-1.2.7-1.6 2.1-1.6.7 0 1.3.1 1.6.1v1.2c-.3 0-.9-.1-1.5-.1-.8 0-.9.1-.9.4 0 .3.4.5 1 .8.9.4 1.7.8 1.7 1.8 0 1.1-.7 1.7-2.2 1.7-.7-.2-1.2-.3-1.7-.3" id="path34"/></g><g transform="translate(-.9 -4.2)" id="g44"><path class="st1" id="polygon38" fill="#e50012" d="M29.9 4.2L24.4 13.6 29.9 23 35.3 13.6z"/><path class="st1" id="polygon40" fill="#e50012" d="M46.1 32.4L40.7 23 29.9 23 35.3 32.4z"/><path class="st1" id="polygon42" fill="#e50012" d="M13.6 32.4L19 23 29.9 23 24.4 32.4z"/></g><path class="st0" d="M55.2 54.4h.8v-2.3c.3-.1.6-.1.9-.1.3 0 .5.1.5.5v1.9h.7v-2c0-.8-.5-1.1-1-1.1-.6 0-1 .2-1.2.3v-.2h-.7zm-2.3-.6c-.6 0-.8-.4-.8-1s.2-.9.8-.9c.6 0 .8.3.8.9 0 .6-.2 1-.8 1m0 .6c1 0 1.6-.5 1.6-1.6 0-1-.6-1.6-1.6-1.6s-1.6.5-1.6 1.6.6 1.6 1.6 1.6m-3.1 0h.8v-3h-.8zm.4-3.5l.5-.5-.5-.6-.5.6zm-1.6 3.5h.6v-.7h-.5c-.4 0-.6-.1-.6-.4V52h1v-.6h-1v-.8h-.8v.8h-.6v.6h.6v1.5c.1.7.5.9 1.3.9m-3.1 0h.8v-3h-.8zm.4-3.5l.5-.5-.5-.6-.5.6zm-2.6 2.8c-.4 0-.6-.1-.8-.1v-1.5c.2-.1.5-.1.8-.1.5 0 .7.4.7.9s-.2.8-.7.8m.1-2.4c-.5 0-.8.1-1 .2v-1.6h-.8v4.5h.8v-.2c.2.1.5.3 1 .3.8 0 1.3-.6 1.3-1.6.1-1-.4-1.6-1.3-1.6m-7.6 3.1h.8v-2.3c.2-.1.6-.1.9-.1.3 0 .5.1.5.5v1.9h.8v-2-.3c.2-.1.6-.2.9-.1.3 0 .5.1.5.5v1.9h.8v-2c0-.8-.5-1.1-1-1.1-.4 0-1 .1-1.3.3-.2-.2-.5-.3-.8-.3-.4 0-1 .2-1.1.3v-.2h-.7v3zm-3.5-1.8c.2-.9.6-1.4.9-2 .3.6.7 1.2.9 2zm1.5-2.5l-.1-.1h-1.1v.1c-.5.9-1.2 2-1.2 3.8v.5h.8V54v-.7h2.1v1.1h.8v-.5c0-1.8-.8-2.9-1.3-3.8m-6 4.3h.8v-2.3c.3-.1.6-.1 1.2-.1v-.7c-.6 0-1 .2-1.2.3v-.2h-.7v3zm-.9-3.1h-.8v2.3c-.3.1-.6.1-.9.1-.3 0-.5-.1-.5-.5v-1.9h-.8v2c0 .8.5 1.1 1 1.1.6 0 1-.2 1.2-.3v.2h.7v-3zm-5.1 2.5c-.6 0-.8-.3-.8-.9 0-.6.2-.9.8-.9.6 0 .8.3.8.9 0 .5-.3.9-.8.9m0 .6c1 0 1.6-.5 1.6-1.6 0-1-.6-1.6-1.6-1.6s-1.6.5-1.6 1.6.5 1.6 1.6 1.6m-4.4 1.5l1.3-1.8c.1-.2 1-1.3 1-2.8h-.8c0 1.2-.6 2.1-.8 2.3-.2-.3-.8-1.2-.8-2.3h-.8c0 1.6.8 2.4 1.1 2.9l-.9 1.2zm-4.8-3.3c0-.5.2-.7.7-.7.6 0 .7.3.7.7zm.9 1.8c.6 0 .9-.1 1.1-.1v-.6c-.2 0-.6.1-1 .1-.6 0-.9-.2-1-.7h2.2v-.3c0-1-.3-1.5-1.4-1.5-1 0-1.5.5-1.5 1.6-.1 1 .5 1.5 1.6 1.5m-4 0h.7c.4-.5 1.1-1.3 1.2-3h-.8c-.1 1.3-.5 1.9-.8 2.3-.3-.4-.7-1.1-.8-2.3h-.7c.1 1.7.8 2.4 1.2 3m-2.6 0h.8v-3h-.8zm.4-3.5l.5-.5-.5-.6-.5.6zm-2.9 3.5h.8v-2.3c.3-.1.6-.1 1.2-.1v-.7c-.6 0-1 .2-1.2.3v-.2h-.8zm-3.6-.8v-2.9h1c.7 0 1.1.4 1.1 1.4 0 1-.4 1.5-1.1 1.5zm-.8.8h1.8c1.2 0 2-.7 2-2.2 0-1.5-.7-2.2-1.9-2.2H0z" id="path46" fill="#231916"/></g></svg>