<svg viewBox="0 0 185 34" xmlns="http://www.w3.org/2000/svg">
    <g fill-rule="evenodd" fill="#ff4800">
        <path d="M83 8v.5L78.25 18h-.498l-4.75-9.5-.002.008V8h-3v17h3V14.993l.002.005 4 8.002H79l4-8.002V25h3V8M55 8v17h11v-3h-8v-4h7v-3h-7v-4h8V8m24 0v17h3V11h7v14h3V8m-55 7c-.922.47-2.188 1-3.5 1-2.103 0-3.5-.914-3.5-3V8h-3v5c0 3.542 2.545 6 6.5 6 1.598 0 2.75-.578 3.5-1v7h3V8h-3v7zm103 0h-7V8h-3v17h3v-7h7v7h3V8h-3m21 0v3h5v14h3V11h5V8m-68 .5v.003L110.25 19H110V8h-3v17h3v-.5l6.75-10.5h.25v11h3V8h-3m46 0l-6.5 17h3.5l1.5-4h6l1.5 4h3.5L166 8h-3zm-.5 10l1.875-6h.25l1.875 6h-4zm-32-10.2c-3.205 0-5.03 1.45-5.85 3.2-.46.986-.65 2.11-.65 3v5c0 .89.19 2.014.65 3 .818 1.75 2.645 3.2 5.85 3.2 3.205 0 5.03-1.45 5.85-3.2.46-.986.65-2.11.65-3v-5c0-.89-.19-2.014-.65-3-.82-1.75-2.645-3.2-5.85-3.2zm3.5 10.7c0 .484-.03 1.5-.25 2-.55 1.26-1.553 1.7-3.25 1.7s-2.7-.44-3.25-1.7c-.22-.5-.25-1.516-.25-2v-4c0-.484.03-1.5.25-2 .55-1.26 1.553-1.7 3.25-1.7s2.7.44 3.25 1.7c.22.5.25 1.516.25 2v4zM0 0v18.632c0 3.194.66 5.738 2.042 7.66C5.054 30.49 10.667 33.21 14.002 34c3.33-.79 8.944-3.51 11.956-7.707C27.343 24.37 28 21.826 28 18.633V0H0zm25.76 18.632c0 2.785-.536 4.884-1.64 6.417-1.176 1.637-2.97 3.2-5.188 4.515-1.607.954-3.41 1.748-4.93 2.18-1.524-.432-3.326-1.226-4.934-2.18-2.217-1.315-4.012-2.878-5.19-4.52-1.102-1.53-1.638-3.63-1.638-6.414V2.177h23.52v16.456z"/>
        <path opacity=".6" d="M4.495 19.33c.077 1.95.486 3.45 1.22 4.47 1.687 2.35 4.698 4.207 7.165 5.237v-8.093H8.4c-1.518 0-3.128-.5-3.905-1.613"/>
        <path d="M9.8 18.768h3.08c.866 0 1.834-.235 2.24-.544v10.813c2.467-1.03 5.478-2.885 7.164-5.233.82-1.14 1.236-2.88 1.236-5.172V4.352h-8.4v8.16c0 .823-.27 1.088-1.12 1.088h-1.12c-.85 0-1.12-.265-1.12-1.088v-8.16H4.48V13.6c0 3.08 1.25 5.168 5.32 5.168"/>
    </g>
</svg>