<svg xmlns="http://www.w3.org/2000/svg" width="40" height="40" viewBox="0 0 40 40">
  <g id="Group_234" data-name="Group 234" transform="translate(4503 -17016)">
    <rect id="Rectangle_296" data-name="Rectangle 296" width="40" height="40" transform="translate(-4503 17016)" fill="none"/>
    <path id="heart" d="M36.827,3.483a10.756,10.756,0,0,0-8-3.483,10.063,10.063,0,0,0-6.285,2.169A12.859,12.859,0,0,0,20,4.823a12.852,12.852,0,0,0-2.541-2.653A10.061,10.061,0,0,0,11.174,0a10.757,10.757,0,0,0-8,3.483A12.5,12.5,0,0,0,0,12.021C0,15.4,1.261,18.5,3.967,21.767A84.594,84.594,0,0,0,13.9,31.088c1.376,1.173,2.936,2.5,4.555,3.918a2.348,2.348,0,0,0,3.092,0c1.62-1.416,3.18-2.746,4.557-3.92a84.555,84.555,0,0,0,9.93-9.321C38.74,18.5,40,15.4,40,12.021A12.5,12.5,0,0,0,36.827,3.483Zm0,0" transform="translate(-4503 17018)" fill="#8b00a9"/>
  </g>
</svg>
