<svg xmlns="http://www.w3.org/2000/svg" width="40" height="40" viewBox="0 0 40 40">
  <g id="Group_235" data-name="Group 235" transform="translate(4555 -17015)">
    <rect id="Rectangle_295" data-name="Rectangle 295" width="40" height="40" transform="translate(-4555 17015)" fill="none"/>
    <g id="fire" transform="translate(-4614 17015)">
      <g id="Group_232" data-name="Group 232" transform="translate(64 0)">
        <path id="Path_233" data-name="Path 233" d="M93.915,23.42c-.458-5.966-3.236-9.7-5.686-13C85.96,7.363,84,4.725,84,.835a.834.834,0,0,0-.452-.741.825.825,0,0,0-.866.063,21.194,21.194,0,0,0-7.823,11.306A36.905,36.905,0,0,0,74,19.915c-3.4-.726-4.168-5.809-4.176-5.865a.833.833,0,0,0-1.189-.632c-.178.086-4.374,2.218-4.618,10.731C64,24.432,64,24.716,64,25A15.017,15.017,0,0,0,79,40a.116.116,0,0,0,.033,0h.011A15.017,15.017,0,0,0,94,25C94,24.584,93.915,23.42,93.915,23.42ZM79,38.332a5.176,5.176,0,0,1-5-5.326c0-.1,0-.2.006-.325a6.755,6.755,0,0,1,.527-2.646,3.043,3.043,0,0,0,2.751,1.993.833.833,0,0,0,.833-.833,16.67,16.67,0,0,1,.32-3.79,8.058,8.058,0,0,1,1.687-3.195,10.738,10.738,0,0,0,1.718,3.152,9.494,9.494,0,0,1,2.136,5.2c.011.143.021.287.021.442A5.177,5.177,0,0,1,79,38.332Z" transform="translate(-64 0)" fill="#2a00a0"/>
      </g>
    </g>
  </g>
</svg>
