<svg xmlns="http://www.w3.org/2000/svg" width="40" height="40" viewBox="0 0 40 40">
  <g id="Group_233" data-name="Group 233" transform="translate(4454 -17015)">
    <rect id="Rectangle_297" data-name="Rectangle 297" width="40" height="40" transform="translate(-4454 17015)" fill="none"/>
    <path id="star" d="M39.131,18.414a2.869,2.869,0,0,0-1.591-4.893l-9.685-1.407a1.265,1.265,0,0,1-.953-.693l-4.33-8.775a2.869,2.869,0,0,0-5.145,0L13.1,11.422a1.266,1.266,0,0,1-.954.693L2.458,13.522A2.869,2.869,0,0,0,.867,18.415l7.008,6.83a1.268,1.268,0,0,1,.365,1.121L6.587,36.011a2.808,2.808,0,0,0,.626,2.326,2.9,2.9,0,0,0,3.536.7l8.661-4.554a1.3,1.3,0,0,1,1.179,0l8.662,4.554a2.839,2.839,0,0,0,1.334.334,2.877,2.877,0,0,0,2.2-1.032,2.807,2.807,0,0,0,.626-2.326l-1.654-9.645a1.267,1.267,0,0,1,.365-1.121Z" transform="translate(-4453.999 17014.953)" fill="#1dc9ab"/>
  </g>
</svg>
