<svg width="20" height="18" viewBox="0 0 20 18" fill="none" xmlns="http://www.w3.org/2000/svg">
<g clip-path="url(#clip0)">
<path d="M13.2796 6.11039C13.0258 5.85655 12.6142 5.85655 12.3604 6.11039C12.1065 6.36423 12.1065 6.77579 12.3604 7.02963L13.2796 6.11039ZM17.3604 12.0296C17.6142 12.2835 18.0258 12.2835 18.2796 12.0296C18.5335 11.7758 18.5335 11.3642 18.2796 11.1104L17.3604 12.0296ZM18.2796 7.02963C18.5335 6.77579 18.5335 6.36423 18.2796 6.11039C18.0258 5.85655 17.6142 5.85655 17.3604 6.11039L18.2796 7.02963ZM12.3604 11.1104C12.1065 11.3642 12.1065 11.7758 12.3604 12.0296C12.6142 12.2835 13.0258 12.2835 13.2796 12.0296L12.3604 11.1104ZM12.3604 7.02963L17.3604 12.0296L18.2796 11.1104L13.2796 6.11039L12.3604 7.02963ZM17.3604 6.11039L12.3604 11.1104L13.2796 12.0296L18.2796 7.02963L17.3604 6.11039Z" fill="white"/>
<path d="M0 11.3129V6.69145C0 6.41531 0.223858 6.19145 0.5 6.19145H5.36583C5.64198 6.19145 5.86583 6.41531 5.86583 6.69145V11.3129C5.86583 11.589 5.64198 11.8129 5.36583 11.8129H0.5C0.223858 11.8129 0 11.589 0 11.3129Z" fill="white" stroke="white" stroke-width="0.5"/>
<path d="M7.90502 1.71202L4.50565 6.05567C4.4368 6.14364 4.3994 6.25212 4.3994 6.36383V11.6405C4.3994 11.7522 4.4368 11.8607 4.50565 11.9486L7.90502 16.2923C8.19797 16.6666 8.79877 16.4594 8.79877 15.9841V2.02018C8.79877 1.54486 8.19797 1.33771 7.90502 1.71202Z" fill="white" stroke="white" stroke-width="0.5"/>
</g>
<defs>
<clipPath id="clip0">
<rect width="20" height="18" fill="white"/>
</clipPath>
</defs>
</svg>
